<svg width="41" height="41" viewBox="0 0 41 41" fill="none" xmlns="http://www.w3.org/2000/svg">
<g clip-path="url(#clip0_1511_6174)">
<mask id="mask0_1511_6174" style="mask-type:luminance" maskUnits="userSpaceOnUse" x="0" y="0" width="41" height="41">
<path d="M0.660156 0.290039H40.6602V40.29H0.660156V0.290039Z" fill="white"/>
</mask>
<g mask="url(#mask0_1511_6174)">
<path d="M9.06015 25.5704C9.05817 26.4006 8.81016 27.2117 8.34746 27.9011C7.88476 28.5904 7.22812 29.1272 6.4605 29.4436C5.69288 29.7599 4.84871 29.8417 4.03465 29.6785C3.22059 29.5153 2.47316 29.1145 1.88678 28.5267C1.3004 27.9389 0.901381 27.1906 0.740131 26.3761C0.578882 25.5617 0.662638 24.7177 0.980818 23.9508C1.299 23.184 1.83733 22.5286 2.52779 22.0675C3.21826 21.6065 4.02989 21.3604 4.86015 21.3604H9.06015V25.5704ZM11.1801 25.5704C11.1524 25.0009 11.2405 24.4318 11.4393 23.8974C11.6381 23.363 11.9434 22.8746 12.3366 22.4618C12.7298 22.0489 13.2027 21.7202 13.7268 21.4957C14.2508 21.2711 14.815 21.1553 15.3851 21.1553C15.9553 21.1553 16.5195 21.2711 17.0435 21.4957C17.5676 21.7202 18.0405 22.0489 18.4337 22.4618C18.8269 22.8746 19.1322 23.363 19.331 23.8974C19.5297 24.4318 19.6179 25.0009 19.5901 25.5704V36.0904C19.5375 37.1702 19.0715 38.1883 18.2886 38.9339C17.5058 39.6794 16.4662 40.0953 15.3851 40.0953C14.3041 40.0953 13.2645 39.6794 12.4817 38.9339C11.6988 38.1883 11.2328 37.1702 11.1801 36.0904V25.5704Z" fill="#E01E5A"/>
<path d="M15.3803 8.69003C14.5501 8.68805 13.7391 8.44005 13.0497 7.97735C12.3603 7.51464 11.8235 6.858 11.5072 6.09038C11.1908 5.32276 11.1091 4.4786 11.2723 3.66454C11.4355 2.85048 11.8363 2.10304 12.424 1.51666C13.0118 0.930283 13.7602 0.531263 14.5746 0.370014C15.3891 0.208765 16.2331 0.292521 16.9999 0.610701C17.7668 0.928881 18.4221 1.46721 18.8832 2.15768C19.3443 2.84814 19.5903 3.65977 19.5903 4.49003V8.69003H15.3803ZM15.3803 10.81C15.9498 10.7823 16.519 10.8704 17.0533 11.0692C17.5877 11.268 18.0761 11.5732 18.489 11.9665C18.9018 12.3597 19.2305 12.8326 19.4551 13.3567C19.6797 13.8807 19.7955 14.4449 19.7955 15.015C19.7955 15.5852 19.6797 16.1494 19.4551 16.6734C19.2305 17.1974 18.9018 17.6704 18.489 18.0636C18.0761 18.4568 17.5877 18.7621 17.0533 18.9608C16.519 19.1596 15.9498 19.2478 15.3803 19.22H4.86035C3.78058 19.1674 2.76245 18.7013 2.01689 17.9185C1.27133 17.1357 0.855469 16.0961 0.855469 15.015C0.855469 13.934 1.27133 12.8944 2.01689 12.1115C2.76245 11.3287 3.78058 10.8627 4.86035 10.81H15.3803Z" fill="#36C5F0"/>
<path d="M32.2606 15.0102C32.2626 14.18 32.5106 13.3689 32.9733 12.6796C33.436 11.9902 34.0926 11.4534 34.8603 11.1371C35.6279 10.8207 36.472 10.739 37.2861 10.9022C38.1002 11.0653 38.8476 11.4661 39.434 12.0539C40.0204 12.6417 40.4194 13.3901 40.5806 14.2045C40.7419 15.019 40.6581 15.8629 40.3399 16.6298C40.0218 17.3967 39.4834 18.052 38.793 18.5131C38.1025 18.9742 37.2909 19.2202 36.4606 19.2202H32.2606V15.0102ZM30.1406 15.0102C30.1711 15.5813 30.085 16.1527 29.8875 16.6894C29.6899 17.2261 29.3851 17.717 28.9917 18.132C28.5982 18.5471 28.1243 18.8776 27.5989 19.1035C27.0735 19.3294 26.5075 19.4459 25.9356 19.4459C25.3637 19.4459 24.7978 19.3294 24.2723 19.1035C23.7469 18.8776 23.273 18.5471 22.8796 18.132C22.4861 17.717 22.1813 17.2261 21.9838 16.6894C21.7862 16.1527 21.7001 15.5813 21.7306 15.0102V4.49023C21.7833 3.41046 22.2493 2.39234 23.0321 1.64677C23.8149 0.90121 24.8546 0.485352 25.9356 0.485352C27.0167 0.485352 28.0563 0.90121 28.8391 1.64677C29.6219 2.39234 30.0879 3.41046 30.1406 4.49023V15.0102Z" fill="#2EB67D"/>
<path d="M25.9405 31.8905C26.7708 31.8924 27.5818 32.1405 28.2712 32.6032C28.9605 33.0659 29.4973 33.7225 29.8137 34.4901C30.13 35.2577 30.2118 36.1019 30.0486 36.916C29.8854 37.73 29.4846 38.4775 28.8968 39.0638C28.3091 39.6502 27.5607 40.0492 26.7462 40.2105C25.9318 40.3717 25.0878 40.288 24.3209 39.9698C23.5541 39.6516 22.8987 39.1133 22.4377 38.4228C21.9766 37.7324 21.7305 36.9207 21.7305 36.0905V31.8905H25.9405ZM25.9405 29.7705C25.3711 29.7982 24.8019 29.7101 24.2675 29.5113C23.7332 29.3125 23.2447 29.0073 22.8319 28.614C22.419 28.2208 22.0904 27.7479 21.8658 27.2238C21.6412 26.6998 21.5254 26.1356 21.5254 25.5655C21.5254 24.9953 21.6412 24.4311 21.8658 23.9071C22.0904 23.3831 22.419 22.9101 22.8319 22.5169C23.2447 22.1237 23.7332 21.8184 24.2675 21.6197C24.8019 21.4209 25.3711 21.3327 25.9405 21.3605H36.4605C37.5403 21.4131 38.5584 21.8792 39.304 22.662C40.0495 23.4448 40.4654 24.4844 40.4654 25.5655C40.4654 26.6465 40.0495 27.6861 39.304 28.469C38.5584 29.2518 37.5403 29.7178 36.4605 29.7705H25.9405Z" fill="#ECB22E"/>
</g>
</g>
<defs>
<clipPath id="clip0_1511_6174">
<rect width="40" height="40" fill="white" transform="translate(0.660156 0.290039)"/>
</clipPath>
</defs>
</svg>
