<svg width="41" height="41" viewBox="0 0 41 41" fill="none" xmlns="http://www.w3.org/2000/svg">
<g clip-path="url(#clip0_1511_6197)">
<g clip-path="url(#clip1_1511_6197)">
<mask id="mask0_1511_6197" style="mask-type:luminance" maskUnits="userSpaceOnUse" x="0" y="0" width="41" height="41">
<path d="M0.330078 0.290039H40.3301V40.29H0.330078V0.290039Z" fill="white"/>
</mask>
<g mask="url(#mask0_1511_6197)">
<path d="M17.0298 9.29C17.6846 8.59777 18.4737 8.04649 19.3489 7.66991C20.2242 7.29334 21.167 7.09941 22.1198 7.1C23.3883 7.10738 24.632 7.4521 25.7233 8.0988C26.8146 8.74549 27.7142 9.67088 28.3298 10.78C29.4317 10.2904 30.6242 10.0383 31.8298 10.04C34.0927 10.1166 36.2373 11.0694 37.811 12.6973C39.3847 14.3252 40.2644 16.5008 40.2644 18.765C40.2644 21.0292 39.3847 23.2048 37.811 24.8327C36.2373 26.4606 34.0927 27.4134 31.8298 27.49C31.248 27.4804 30.6685 27.4134 30.0998 27.29C29.3142 28.7003 28.018 29.7559 26.4778 30.2395C24.9376 30.7231 23.2706 30.5981 21.8198 29.89C21.2551 31.2194 20.3046 32.3489 19.0911 33.1324C17.8777 33.9159 16.4572 34.3174 15.0132 34.2851C13.5691 34.2528 12.168 33.7881 10.9908 32.9512C9.81366 32.1142 8.9146 30.9433 8.40985 29.59C7.95585 29.683 7.49285 29.73 7.02985 29.73C5.54529 29.7148 4.10677 29.2127 2.93515 28.3009C1.76354 27.389 0.923605 26.1178 0.544323 24.6825C0.165041 23.2471 0.267377 21.7269 0.835618 20.3553C1.40386 18.9837 2.40659 17.8366 3.68985 17.09C2.94991 15.3464 2.8706 13.3929 3.46675 11.595C4.06291 9.79718 5.29368 8.27811 6.92881 7.32204C8.56393 6.36597 10.4914 6.0384 12.3506 6.40062C14.2097 6.76284 15.8732 7.79002 17.0298 9.29Z" fill="#179BD7"/>
<path fill-rule="evenodd" clip-rule="evenodd" d="M24.2399 16.1202L24.0199 16.0602H23.6799C23.4975 16.0488 23.3146 16.0749 23.1427 16.1368C22.9707 16.1987 22.8132 16.2952 22.6799 16.4202C22.4185 16.7132 22.2543 17.0801 22.2099 17.4702V17.6302H21.7099C21.6921 17.6312 21.675 17.6374 21.6608 17.6481C21.6465 17.6588 21.6358 17.6734 21.6299 17.6902L21.5499 18.1602C21.5499 18.2102 21.5499 18.2402 21.6299 18.2402H22.1399L21.6199 21.1502C21.5869 21.3432 21.5399 21.5342 21.4799 21.7202C21.4429 21.8374 21.389 21.9486 21.3199 22.0502C21.27 22.128 21.1963 22.1876 21.1099 22.2202C21.0171 22.2348 20.9226 22.2348 20.8299 22.2202C20.767 22.2303 20.7028 22.2303 20.6399 22.2202H20.5199C20.5073 22.2096 20.4913 22.2038 20.4749 22.2038C20.4584 22.2038 20.4425 22.2096 20.4299 22.2202L20.2499 22.6902C20.2393 22.7028 20.2335 22.7188 20.2335 22.7352C20.2335 22.7517 20.2393 22.7676 20.2499 22.7802L20.4599 22.8402C20.5699 22.8552 20.6799 22.8552 20.7899 22.8402C20.9899 22.8332 21.1899 22.7962 21.3799 22.7302C21.5439 22.6632 21.6899 22.5602 21.8099 22.4302C21.9399 22.2762 22.0419 22.1002 22.1099 21.9102C22.1999 21.6602 22.2699 21.4022 22.3199 21.1402L22.8399 18.1402H23.6099C23.6297 18.1433 23.6499 18.1388 23.6666 18.1277C23.6832 18.1166 23.6951 18.0997 23.6999 18.0802L23.7799 17.6202C23.7799 17.5702 23.7799 17.5402 23.7099 17.5402H22.9499C22.9699 17.3632 23.0099 17.1882 23.0699 17.0202C23.1014 16.9248 23.1565 16.8388 23.2299 16.7702C23.2835 16.7117 23.353 16.67 23.4299 16.6502C23.5159 16.6351 23.6039 16.6351 23.6899 16.6502H24.1099L24.3299 16.2902C24.3381 16.2785 24.3424 16.2645 24.3424 16.2502C24.3424 16.2359 24.3381 16.2219 24.3299 16.2102L24.2399 16.1202ZM13.8599 21.1502C13.8571 21.1662 13.8501 21.1812 13.8395 21.1935C13.829 21.2058 13.8153 21.215 13.7999 21.2202H13.1699C13.1531 21.2178 13.1378 21.2094 13.1267 21.1965C13.1157 21.1836 13.1097 21.1672 13.1099 21.1502V16.1502C13.1099 16.1502 13.1099 16.0802 13.1699 16.0802H13.7899C13.8068 16.08 13.8233 16.086 13.8362 16.0971C13.849 16.1081 13.8575 16.1234 13.8599 16.1402V21.1502ZM6.13988 20.8002V20.8802C6.20988 20.9362 6.28788 20.9832 6.36988 21.0202C6.73788 21.2202 7.15088 21.3202 7.56988 21.3102C8.38988 21.3102 8.88988 20.8702 8.88988 20.1602C8.88988 19.5002 8.31988 19.2702 7.76988 19.1102H7.69988L7.64988 19.0922C7.26988 18.9602 6.94988 18.8482 6.94988 18.5902C6.96491 18.4735 7.02408 18.367 7.11522 18.2926C7.20636 18.2182 7.32255 18.1816 7.43988 18.1902C7.78888 18.2052 8.12988 18.2972 8.43988 18.4602C8.45468 18.4701 8.47208 18.4754 8.48988 18.4754C8.50768 18.4754 8.52508 18.4701 8.53988 18.4602L8.70988 17.9902C8.72395 17.9754 8.73179 17.9557 8.73179 17.9352C8.73179 17.9148 8.72395 17.8951 8.70988 17.8802C8.35303 17.6669 7.94561 17.553 7.52988 17.5502H7.51988C7.21809 17.5162 6.91497 17.6018 6.67564 17.7888C6.43631 17.9758 6.27986 18.2491 6.23988 18.5502C6.24429 18.5834 6.24429 18.617 6.23988 18.6502C6.23988 19.3302 6.82988 19.5602 7.36988 19.7102L7.46988 19.7702L7.48888 19.7762C7.87088 19.8932 8.19888 19.9962 8.19888 20.2702C8.19113 20.4011 8.13229 20.5237 8.03503 20.6116C7.93777 20.6995 7.80987 20.7457 7.67888 20.7402H7.60888C7.23265 20.7441 6.86373 20.6362 6.54888 20.4302L6.42988 20.2902C6.42021 20.2803 6.40783 20.2736 6.3943 20.2707C6.38078 20.2679 6.36671 20.2691 6.35388 20.2742C6.34484 20.2778 6.33667 20.2832 6.32988 20.2902L6.13988 20.8002ZM18.1899 20.8002C18.18 20.8112 18.1746 20.8255 18.1746 20.8402C18.1746 20.855 18.18 20.8692 18.1899 20.8802C18.2619 20.9342 18.3399 20.9802 18.4199 21.0202C18.7929 21.2132 19.2099 21.3062 19.6299 21.2902C20.4499 21.2902 20.9499 20.8502 20.9499 20.1402C20.9499 19.4802 20.3699 19.2502 19.8299 19.0902H19.7599L19.7199 19.0762C19.3269 18.9422 18.9999 18.8312 18.9999 18.5702C19.0126 18.4464 19.0728 18.3324 19.168 18.2521C19.2631 18.1719 19.3857 18.1318 19.5099 18.1402C19.8589 18.1472 20.2009 18.2362 20.5099 18.4002C20.5197 18.4102 20.5323 18.417 20.546 18.4198C20.5597 18.4227 20.5739 18.4214 20.5869 18.4162C20.5955 18.4125 20.6034 18.407 20.6099 18.4002L20.7799 17.9302C20.7878 17.9165 20.7919 17.901 20.7919 17.8852C20.7919 17.8694 20.7878 17.8539 20.7799 17.8402C20.4225 17.6282 20.0154 17.5144 19.5999 17.5102H19.5199C19.2192 17.4763 18.9173 17.5622 18.6796 17.7494C18.4418 17.9366 18.2874 18.21 18.2499 18.5102C18.2449 18.5434 18.2449 18.5771 18.2499 18.6102C18.2499 19.3002 18.8299 19.5202 19.3699 19.6702H19.4599L19.4899 19.6802C19.8679 19.7952 20.1999 19.8972 20.1999 20.1702C20.1973 20.2355 20.1818 20.2995 20.1541 20.3587C20.1265 20.4179 20.0873 20.4709 20.0388 20.5147C19.9904 20.5585 19.9337 20.5921 19.872 20.6137C19.8104 20.6352 19.7451 20.6443 19.6799 20.6402H19.6299C19.2725 20.6245 18.9264 20.5103 18.6299 20.3102L18.4999 20.2102C18.4933 20.2037 18.4855 20.1986 18.4769 20.1952C18.4683 20.1918 18.4591 20.1901 18.4499 20.1902C18.4406 20.1901 18.4315 20.1918 18.4229 20.1952C18.4143 20.1986 18.4065 20.2037 18.3999 20.2102L18.1899 20.8002ZM26.4199 19.4202C26.4378 19.7481 26.3614 20.0743 26.1999 20.3602C26.127 20.4667 26.0281 20.5529 25.9126 20.6107C25.7971 20.6684 25.6689 20.6958 25.5399 20.6902C25.409 20.6996 25.2779 20.6739 25.1602 20.6159C25.0425 20.5579 24.9423 20.4697 24.8699 20.3602C24.7113 20.0735 24.6384 19.7472 24.6599 19.4202C24.6383 19.0932 24.7112 18.7669 24.8699 18.4802C24.9423 18.3707 25.0425 18.2825 25.1602 18.2245C25.2779 18.1665 25.409 18.1409 25.5399 18.1502C25.6689 18.1446 25.7971 18.172 25.9126 18.2297C26.0281 18.2875 26.127 18.3737 26.1999 18.4802C26.3619 18.7662 26.4379 19.0922 26.4199 19.4202ZM27.1099 18.6802C27.0477 18.4595 26.9386 18.2548 26.7899 18.0802C26.6494 17.9089 26.4715 17.7721 26.2699 17.6802C26.0357 17.5812 25.7841 17.5302 25.5299 17.5302C25.2757 17.5302 25.024 17.5812 24.7899 17.6802C24.5869 17.7745 24.4062 17.9108 24.2599 18.0802C24.1178 18.2577 24.0125 18.4617 23.9499 18.6802C23.8199 19.1616 23.8199 19.6688 23.9499 20.1502C24.0068 20.3688 24.1117 20.572 24.257 20.745C24.4023 20.918 24.5844 21.0564 24.7899 21.1502C25.2651 21.3395 25.7947 21.3395 26.2699 21.1502C26.4715 21.0584 26.6494 20.9215 26.7899 20.7502C26.9339 20.5742 27.0399 20.3702 27.0999 20.1502C27.2399 19.6702 27.2399 19.1602 27.0999 18.6802H27.1099ZM32.7399 20.5702C32.7281 20.562 32.7142 20.5577 32.6999 20.5577C32.6856 20.5577 32.6716 20.562 32.6599 20.5702C32.5529 20.6102 32.4419 20.6402 32.3299 20.6602H31.9499C31.805 20.6721 31.6594 20.6523 31.5229 20.6023C31.3865 20.5522 31.2626 20.473 31.1599 20.3702C30.9475 20.105 30.8439 19.769 30.8699 19.4302C30.849 19.1091 30.9409 18.7907 31.1299 18.5302C31.2198 18.4165 31.3359 18.3262 31.4682 18.267C31.6005 18.2078 31.7452 18.1815 31.8899 18.1902C32.1379 18.1872 32.3839 18.2242 32.6199 18.3002C32.6301 18.3075 32.6423 18.3115 32.6549 18.3115C32.6674 18.3115 32.6797 18.3075 32.6899 18.3002L32.7129 18.2402C32.7629 18.1062 32.8079 17.9872 32.8599 17.8302C32.8681 17.8185 32.8724 17.8045 32.8724 17.7902C32.8724 17.7759 32.8681 17.7619 32.8599 17.7502C32.6893 17.6785 32.5117 17.6249 32.3299 17.5902C32.1569 17.5751 31.9829 17.5751 31.8099 17.5902C31.5499 17.5812 31.2899 17.6292 31.0499 17.7302C30.8373 17.8274 30.6467 17.9669 30.4899 18.1402C30.3399 18.3122 30.2269 18.5132 30.1599 18.7302C30.0879 18.9702 30.0509 19.2202 30.0499 19.4702C30.0299 19.9696 30.1976 20.4583 30.5199 20.8402C30.6941 21.0185 30.9052 21.1565 31.1384 21.2446C31.3716 21.3327 31.6213 21.3687 31.8699 21.3502C32.2099 21.3522 32.5489 21.2952 32.8699 21.1802C32.8781 21.1685 32.8824 21.1545 32.8824 21.1402C32.8824 21.1259 32.8781 21.1119 32.8699 21.1002L32.7399 20.5702ZM33.9499 19.0402C33.9669 18.8442 34.0329 18.6552 34.1399 18.4902C34.2105 18.3814 34.3089 18.2934 34.425 18.2354C34.541 18.1774 34.6704 18.1514 34.7999 18.1602C34.9297 18.1483 35.0603 18.1729 35.1769 18.2312C35.2935 18.2895 35.3915 18.3792 35.4599 18.4902C35.5579 18.6572 35.6129 18.8462 35.6199 19.0402H33.9499ZM36.3299 18.5702C36.2723 18.3697 36.1697 18.185 36.0299 18.0302C35.9086 17.8874 35.7587 17.7715 35.5899 17.6902C35.3776 17.602 35.1497 17.5578 34.9199 17.5602C34.6583 17.55 34.398 17.6013 34.1599 17.7102C33.9523 17.8015 33.7677 17.9382 33.6199 18.1102C33.474 18.2889 33.3683 18.497 33.3099 18.7202C33.2379 18.9602 33.2009 19.2102 33.1999 19.4602C33.2024 19.714 33.2394 19.9664 33.3099 20.2102C33.3742 20.4404 33.4933 20.6516 33.657 20.8258C33.8207 20.9999 34.0241 21.1318 34.2499 21.2102C34.5179 21.3112 34.8039 21.3602 35.0899 21.3502C35.494 21.3723 35.8971 21.2896 36.2599 21.1102V21.0002L36.1099 20.5802C36.1052 20.5634 36.0944 20.549 36.0796 20.5397C36.0648 20.5305 36.0471 20.5271 36.0299 20.5302C35.7375 20.6599 35.4195 20.7215 35.0999 20.7102C34.8555 20.7356 34.6103 20.6701 34.4111 20.5262C34.2119 20.3824 34.0726 20.1702 34.0199 19.9302C34.0098 19.8338 34.0098 19.7366 34.0199 19.6402H36.3299C36.3468 19.6404 36.3633 19.6344 36.3762 19.6234C36.389 19.6123 36.3975 19.597 36.3999 19.5802C36.4432 19.2455 36.4194 18.9056 36.3299 18.5802V18.5702ZM15.3299 19.0402C15.3489 18.8462 15.4099 18.6582 15.5099 18.4902C15.5823 18.3807 15.6825 18.2925 15.8002 18.2345C15.9179 18.1765 16.049 18.1509 16.1799 18.1602C16.3096 18.1494 16.4397 18.1745 16.5561 18.2327C16.6725 18.2909 16.7707 18.38 16.8399 18.4902C16.9379 18.6572 16.9929 18.8462 16.9999 19.0402H15.3299ZM17.6699 18.5702C17.6084 18.3713 17.5063 18.1874 17.3699 18.0302C17.2445 17.8917 17.0955 17.7766 16.9299 17.6902C16.7189 17.5957 16.491 17.5447 16.2599 17.5402C15.9983 17.53 15.738 17.5813 15.4999 17.6902C15.2879 17.7802 15.1029 17.9202 14.9599 18.1002C14.8129 18.2762 14.7039 18.4802 14.6399 18.7002C14.5717 18.9409 14.538 19.1901 14.5399 19.4402C14.5359 19.6942 14.5729 19.9482 14.6499 20.1902C14.7132 20.4193 14.8308 20.6298 14.9927 20.8039C15.1545 20.978 15.356 21.1105 15.5799 21.1902C15.8519 21.2902 16.1399 21.3382 16.4299 21.3302C16.8329 21.3502 17.2339 21.2702 17.5999 21.1002V20.9802L17.4199 20.5402C17.4152 20.534 17.4092 20.529 17.4022 20.5255C17.3953 20.522 17.3876 20.5202 17.3799 20.5202C17.3721 20.5202 17.3645 20.522 17.3575 20.5255C17.3506 20.529 17.3445 20.534 17.3399 20.5402C17.0409 20.6602 16.7209 20.7192 16.3999 20.7102C16.2748 20.7284 16.1473 20.7212 16.025 20.689C15.9028 20.6568 15.7883 20.6002 15.6884 20.5227C15.5885 20.4453 15.5053 20.3484 15.4437 20.238C15.3821 20.1276 15.3434 20.0059 15.3299 19.8802C15.3149 19.7908 15.3149 19.6996 15.3299 19.6102H17.6699C17.6858 19.6102 17.7011 19.6039 17.7123 19.5926C17.7236 19.5814 17.7299 19.5661 17.7299 19.5502C17.7766 19.2156 17.7528 18.875 17.6599 18.5502L17.6699 18.5702ZM10.3299 20.5602C10.2761 20.5213 10.2288 20.474 10.1899 20.4202C10.1432 20.3271 10.1192 20.2243 10.1199 20.1202C10.109 20.0302 10.1228 19.9389 10.1597 19.8561C10.1967 19.7733 10.2555 19.7021 10.3299 19.6502C10.5279 19.5202 10.7639 19.4602 10.9999 19.4802C11.2099 19.4652 11.4199 19.4652 11.6299 19.4802V20.5902C11.422 20.6316 11.2115 20.6583 10.9999 20.6702C10.765 20.7092 10.5238 20.6631 10.3199 20.5402L10.3299 20.5602ZM11.2499 18.9002H10.8899C10.6972 18.9015 10.5055 18.9284 10.3199 18.9802C10.152 19.0268 9.99317 19.1012 9.84988 19.2002C9.69998 19.3059 9.5786 19.447 9.49659 19.6111C9.41457 19.7751 9.37447 19.9569 9.37988 20.1402C9.37674 20.3229 9.41431 20.5039 9.48988 20.6702C9.55988 20.8122 9.66288 20.9362 9.78988 21.0302C9.91788 21.1452 10.0679 21.2332 10.2299 21.2902C10.4339 21.3302 10.6419 21.3502 10.8499 21.3502C11.0845 21.3503 11.3187 21.3302 11.5499 21.2902L12.1399 21.1802H12.2999C12.3167 21.1743 12.3313 21.1636 12.342 21.1493C12.3527 21.1351 12.3589 21.118 12.3599 21.1002V18.8702C12.3693 18.6871 12.3414 18.5041 12.2778 18.3321C12.2142 18.1602 12.1162 18.003 11.9899 17.8702C11.6822 17.6396 11.304 17.523 10.9199 17.5402C10.7119 17.5402 10.5039 17.5602 10.2999 17.6002C10.0454 17.6397 9.8009 17.728 9.57988 17.8602C9.5693 17.8728 9.5635 17.8888 9.5635 17.9052C9.5635 17.9217 9.5693 17.9376 9.57988 17.9502L9.73988 18.3902C9.75162 18.3984 9.76558 18.4028 9.77988 18.4028C9.79418 18.4028 9.80814 18.3984 9.81988 18.3902C10.1325 18.2417 10.4738 18.1632 10.8199 18.1602C11.0218 18.1397 11.2242 18.193 11.3899 18.3102C11.4601 18.3812 11.5108 18.4692 11.5371 18.5655C11.5634 18.6619 11.5644 18.7634 11.5399 18.8602V18.9602L11.1599 18.9102L11.2499 18.9002ZM29.9799 17.7302C29.9905 17.7176 29.9963 17.7017 29.9963 17.6852C29.9963 17.6688 29.9905 17.6528 29.9799 17.6402C29.8526 17.6056 29.7217 17.5855 29.5899 17.5802C29.3854 17.5533 29.1775 17.5845 28.9899 17.6702C28.8375 17.7375 28.7012 17.8364 28.5899 17.9602V17.6802C28.5899 17.6802 28.5899 17.6202 28.5299 17.6102H27.9199C27.9031 17.6126 27.8878 17.6211 27.8767 17.6339C27.8657 17.6468 27.8597 17.6633 27.8599 17.6802V21.1502C27.862 21.168 27.8701 21.1846 27.8828 21.1973C27.8955 21.21 27.9121 21.2181 27.9299 21.2202H28.5399C28.5577 21.2181 28.5743 21.21 28.587 21.1973C28.5997 21.1846 28.6078 21.168 28.6099 21.1502V19.4102C28.6027 19.2078 28.6263 19.0055 28.6799 18.8102C28.7206 18.6835 28.7889 18.5673 28.8799 18.4702C28.9599 18.3902 29.0599 18.3302 29.1699 18.3002C29.2759 18.2852 29.3839 18.2852 29.4899 18.3002C29.5729 18.2902 29.6569 18.2902 29.7399 18.3002C29.7591 18.2999 29.7777 18.2941 29.7937 18.2834C29.8097 18.2728 29.8222 18.2578 29.8299 18.2402L30.0099 17.7702L29.9799 17.7302ZM10.8619 25.3782C10.8089 25.3372 10.7653 25.2854 10.7339 25.2262C10.8932 25.2111 11.0458 25.1549 11.1769 25.0632C11.3001 24.9743 11.3968 24.8537 11.4569 24.7142C11.5248 24.5599 11.5586 24.3928 11.5559 24.2242C11.5559 24.0252 11.5179 23.8492 11.4409 23.6972C11.3683 23.5486 11.2526 23.4252 11.1089 23.3432C10.9503 23.2544 10.7706 23.2102 10.5889 23.2152C10.3889 23.2152 10.2149 23.2582 10.0689 23.3432C9.92552 23.4253 9.81018 23.5487 9.73788 23.6972C9.65904 23.8618 9.61999 24.0427 9.62388 24.2252C9.62388 24.4122 9.65688 24.5782 9.72388 24.7252C9.78811 24.8668 9.88976 24.9882 10.0179 25.0762C10.1479 25.1632 10.3039 25.2142 10.4839 25.2292C10.5247 25.327 10.5845 25.4157 10.6599 25.4902C10.7414 25.563 10.8397 25.6145 10.9459 25.6402C11.0659 25.6742 11.2209 25.6912 11.4109 25.6912V25.4932C11.2679 25.4932 11.1529 25.4832 11.0659 25.4632C10.9924 25.4506 10.9226 25.4215 10.8619 25.3782ZM10.0539 24.8082C9.92988 24.6622 9.86888 24.4682 9.86888 24.2252C9.86888 23.9822 9.92888 23.7872 10.0539 23.6422C10.1769 23.4972 10.3559 23.4252 10.5899 23.4252C10.8239 23.4252 11.0019 23.4972 11.1229 23.6422C11.2459 23.7872 11.3079 23.9822 11.3079 24.2252C11.3079 24.4682 11.2459 24.6622 11.1229 24.8072C11.0019 24.9522 10.8229 25.0252 10.5899 25.0252C10.3559 25.0252 10.1769 24.9532 10.0539 24.8082ZM9.42388 23.8882C9.42762 24.0117 9.39456 24.1335 9.32888 24.2382C9.26644 24.3315 9.17867 24.4051 9.07588 24.4502C8.97069 24.4979 8.85638 24.5221 8.74088 24.5212H8.32688V25.1882H8.08488V23.2602H8.73488C8.93688 23.2602 9.10188 23.3112 9.23088 23.4132C9.35988 23.5142 9.42388 23.6752 9.42388 23.8882ZM8.32388 23.4552V24.3252H8.71888C8.83671 24.3295 8.95202 24.2903 9.04288 24.2152C9.13188 24.1392 9.17588 24.0312 9.17588 23.8902C9.17588 23.7382 9.13188 23.6272 9.04288 23.5582C8.94807 23.4868 8.83148 23.4504 8.71288 23.4552H8.32388ZM7.60688 23.6052L7.74688 23.4492C7.66329 23.3718 7.56454 23.3125 7.45688 23.2752C7.34095 23.2327 7.21834 23.2114 7.09488 23.2122C6.91314 23.2068 6.73335 23.2511 6.57488 23.3402C6.4329 23.4225 6.31923 23.5459 6.24888 23.6942C6.17309 23.8597 6.1355 24.0402 6.13888 24.2222C6.13888 24.4222 6.17588 24.5972 6.24888 24.7502C6.31888 24.8982 6.43188 25.0222 6.57288 25.1062C6.73036 25.1951 6.90911 25.2394 7.08988 25.2342C7.22988 25.2342 7.35788 25.2112 7.47588 25.1642C7.58991 25.1186 7.69363 25.0506 7.78088 24.9642L7.63388 24.8042C7.49059 24.9442 7.29818 25.0224 7.09788 25.0222C6.86588 25.0222 6.68988 24.9492 6.56988 24.8022C6.44988 24.6552 6.38988 24.4622 6.38988 24.2222C6.38988 23.9822 6.44988 23.7872 6.56988 23.6402C6.68988 23.4932 6.86788 23.4202 7.10288 23.4202C7.28776 23.4177 7.46712 23.4832 7.60688 23.6042V23.6052Z" fill="white"/>
</g>
</g>
</g>
<defs>
<clipPath id="clip0_1511_6197">
<rect width="40" height="40" fill="white" transform="translate(0.330078 0.290039)"/>
</clipPath>
<clipPath id="clip1_1511_6197">
<rect width="40" height="40" fill="white" transform="translate(0.330078 0.290039)"/>
</clipPath>
</defs>
</svg>
