<svg width="40" height="41" viewBox="0 0 40 41" fill="none" xmlns="http://www.w3.org/2000/svg">
<g clip-path="url(#clip0_1511_6217)">
<g clip-path="url(#clip1_1511_6217)">
<path d="M35 0.290039H5C2.23858 0.290039 0 2.52862 0 5.29004V35.29C0 38.0515 2.23858 40.29 5 40.29H35C37.7614 40.29 40 38.0515 40 35.29V5.29004C40 2.52862 37.7614 0.290039 35 0.290039Z" fill="white"/>
<path d="M32.823 19.8093C32.891 18.6943 33.189 18.1883 33.767 18.1883C34.345 18.1883 34.617 18.7193 34.617 19.8083L32.823 19.8093ZM36.996 20.4673C37.0358 19.4351 36.7373 18.4182 36.146 17.5713C35.8615 17.2171 35.4961 16.9364 35.0806 16.7528C34.665 16.5692 34.2114 16.4881 33.758 16.5163C31.642 16.5163 30.358 18.0693 30.358 20.5603C30.316 21.1226 30.3877 21.6877 30.569 22.2217C30.7503 22.7557 31.0373 23.2477 31.413 23.6683C32.1485 24.3086 33.1082 24.6305 34.081 24.5633C35.0135 24.5965 35.9372 24.3716 36.75 23.9133L36.47 22.2233C35.8166 22.571 35.085 22.7456 34.345 22.7303C33.9681 22.7637 33.5922 22.6553 33.291 22.4263C33.1462 22.2841 33.031 22.1147 32.952 21.9278C32.8731 21.7409 32.8319 21.5402 32.831 21.3373H36.996V20.4673ZM27.036 22.1573C26.9631 22.3242 26.8447 22.4672 26.6944 22.5701C26.5442 22.673 26.368 22.7316 26.186 22.7393C25.9533 22.7413 25.7232 22.6893 25.514 22.5873V18.8883C25.6287 18.7455 25.7718 18.6282 25.9344 18.5438C26.0969 18.4595 26.2752 18.4099 26.458 18.3983C27.087 18.3983 27.401 19.0743 27.401 20.4003C27.4376 21.0023 27.3206 21.6038 27.061 22.1483L27.035 22.1563L27.036 22.1573ZM29.109 17.3773C28.8938 17.0988 28.6144 16.8765 28.2947 16.7294C27.975 16.5822 27.6245 16.5146 27.273 16.5323C26.9011 16.5395 26.535 16.6263 26.1994 16.7867C25.8637 16.9471 25.5663 17.1774 25.327 17.4623L25.191 16.6843H23.007V27.2903L25.497 26.8853V24.3503C25.862 24.4683 26.244 24.5283 26.627 24.5283C27.0376 24.5469 27.4476 24.48 27.831 24.3318C28.2143 24.1835 28.5627 23.9573 28.854 23.6673C29.6059 22.7099 29.9675 21.5034 29.866 20.2903C29.9426 19.2516 29.6767 18.2164 29.109 17.3433V17.3773ZM19.522 16.6763H22.03V24.4283H19.53V16.6593L19.522 16.6763ZM20.772 15.9083C21.0325 15.9097 21.2876 15.8341 21.5054 15.6911C21.7231 15.548 21.8938 15.3439 21.996 15.1043C22.0967 14.8648 22.1235 14.6006 22.0729 14.3458C22.0223 14.091 21.8966 13.8571 21.712 13.6743C21.5272 13.4908 21.2924 13.3661 21.0369 13.3159C20.7815 13.2656 20.5169 13.292 20.2764 13.3917C20.0359 13.4914 19.8303 13.66 19.6854 13.8763C19.5404 14.0926 19.4627 14.3469 19.462 14.6073C19.462 14.9523 19.601 15.2833 19.846 15.5273C20.092 15.7713 20.424 15.9073 20.772 15.9073V15.9083ZM18.442 16.5753C18.1161 16.5595 17.7941 16.6508 17.525 16.8353C17.2564 17.0193 17.0561 17.2868 16.955 17.5963L16.811 16.6763H14.644V24.4283H17.134V19.3603C17.3024 19.1737 17.5127 19.0297 17.7475 18.9402C17.9824 18.8507 18.2351 18.8182 18.485 18.8453C18.632 18.8283 18.781 18.8283 18.927 18.8453V16.6153C18.775 16.5753 18.617 16.5553 18.46 16.5573L18.443 16.5743L18.442 16.5753ZM13.683 18.5003L13.981 16.6683H12.349V14.4383L10.216 14.7853L9.91 16.6683L9.153 16.7863L8.873 18.4753H9.935V22.0723C9.88968 22.4397 9.93061 22.8127 10.0545 23.1616C10.1785 23.5105 10.382 23.8257 10.649 24.0823C11.1889 24.4458 11.8363 24.6151 12.485 24.5623C12.928 24.5723 13.37 24.5123 13.794 24.3853V22.4433C13.5574 22.5046 13.3151 22.5414 13.071 22.5533C12.579 22.5533 12.366 22.3003 12.366 21.7093V18.4903L13.683 18.5003ZM6.553 19.5803C5.822 19.3023 5.423 19.1003 5.423 18.7783C5.423 18.4583 5.66 18.3393 6.068 18.3393C6.778 18.3743 7.472 18.5653 8.099 18.8973L8.405 17.0563C7.62812 16.6959 6.78035 16.5141 5.924 16.5243C5.18932 16.4898 4.46535 16.7106 3.875 17.1493C3.61586 17.3697 3.41011 17.646 3.27327 17.9574C3.13643 18.2689 3.07205 18.6073 3.085 18.9473C3.085 20.2983 3.935 20.8813 5.269 21.3713C6.119 21.6753 6.434 21.9033 6.434 22.2153C6.434 22.5283 6.154 22.7303 5.644 22.7303C4.81576 22.6736 4.01088 22.4313 3.289 22.0213L3 23.9043C3.864 24.3403 4.82 24.5653 5.788 24.5633C6.54953 24.6053 7.30322 24.3913 7.929 23.9553C8.21149 23.7251 8.4357 23.4316 8.58339 23.0985C8.73109 22.7654 8.79811 22.4021 8.779 22.0383C8.779 20.6453 7.929 20.0693 6.553 19.5803Z" fill="black"/>
</g>
</g>
<defs>
<clipPath id="clip0_1511_6217">
<rect width="40" height="40" fill="white" transform="translate(0 0.290039)"/>
</clipPath>
<clipPath id="clip1_1511_6217">
<rect width="40" height="40" fill="white" transform="translate(0 0.290039)"/>
</clipPath>
</defs>
</svg>
