<svg width="41" height="41" viewBox="0 0 41 41" fill="none" xmlns="http://www.w3.org/2000/svg">
<g clip-path="url(#clip0_1511_6251)">
<g clip-path="url(#clip1_1511_6251)">
<mask id="mask0_1511_6251" style="mask-type:luminance" maskUnits="userSpaceOnUse" x="0" y="0" width="41" height="41">
<path d="M0.330078 0.290039H40.3301V40.29H0.330078V0.290039Z" fill="white"/>
</mask>
<g mask="url(#mask0_1511_6251)">
<path d="M30.5799 13.4505V8.6905C31.2074 8.39586 31.7385 7.92954 32.1119 7.34552C32.4854 6.76151 32.6857 6.08368 32.6899 5.3905V5.2905C32.6899 4.31888 32.3046 3.38692 31.6185 2.69894C30.9324 2.01097 30.0015 1.62314 29.0299 1.6205H28.9199C28.4384 1.6205 27.9617 1.71549 27.517 1.90005C27.0723 2.08461 26.6683 2.3551 26.3283 2.69602C25.9883 3.03694 25.719 3.4416 25.5356 3.8868C25.3523 4.33201 25.2586 4.80902 25.2599 5.2905V5.3905C25.2557 6.08041 25.4481 6.75723 25.8147 7.34169C26.1813 7.92614 26.7069 8.39401 27.3299 8.6905V13.4505C25.5203 13.7305 23.8164 14.4824 22.3899 15.6305L9.3299 5.4605C9.41665 5.13372 9.46696 4.79835 9.47989 4.4605C9.4898 3.64005 9.25569 2.83517 8.80729 2.14802C8.35889 1.46088 7.71642 0.922476 6.96145 0.60116C6.20647 0.279845 5.37305 0.190113 4.56698 0.343356C3.76092 0.496599 3.01856 0.885905 2.43417 1.46185C1.84977 2.03779 1.4497 2.7744 1.28473 3.57815C1.11977 4.3819 1.19736 5.21654 1.50764 5.97612C1.81793 6.73569 2.34692 7.38593 3.02746 7.84429C3.708 8.30265 4.50939 8.54846 5.3299 8.5505C6.033 8.54389 6.72228 8.35434 7.3299 8.0005L20.1799 18.0005C19.0242 19.7493 18.4223 21.8058 18.4526 23.9017C18.483 25.9977 19.1441 28.0358 20.3499 29.7505L16.4299 33.6605C16.1073 33.554 15.7696 33.5 15.4299 33.5005C14.757 33.5005 14.0993 33.7002 13.5399 34.0742C12.9806 34.4482 12.5448 34.9798 12.2878 35.6017C12.0307 36.2235 11.964 36.9077 12.096 37.5675C12.228 38.2273 12.5528 38.8331 13.0293 39.3082C13.5058 39.7833 14.1125 40.1063 14.7727 40.2364C15.4329 40.3664 16.1169 40.2977 16.738 40.0388C17.3591 39.7799 17.8894 39.3426 18.2618 38.7822C18.6342 38.2217 18.8319 37.5634 18.8299 36.8905C18.8234 36.5513 18.7696 36.2147 18.6699 35.8905L22.5399 32.0205C24.1225 33.2262 26.0169 33.9541 27.9997 34.1185C29.9824 34.2829 31.9709 33.8769 33.7305 32.9483C35.49 32.0198 36.9474 30.6074 37.9306 28.8778C38.9139 27.1482 39.3821 25.1734 39.2799 23.1865C39.1562 20.7945 38.2129 18.518 36.6085 16.7396C35.0041 14.9611 32.8365 13.7891 30.4699 13.4205M28.9699 29.1105C28.2673 29.1092 27.5718 28.9695 26.9231 28.6994C26.2745 28.4293 25.6854 28.0341 25.1894 27.5363C24.1879 26.531 23.6267 25.169 23.6294 23.75C23.632 22.331 24.1983 20.9711 25.2036 19.9696C26.2089 18.968 27.5709 18.4068 28.9899 18.4095C30.4089 18.4121 31.7688 18.9784 32.7703 19.9837C33.7719 20.989 34.333 22.351 34.3304 23.77C34.3277 25.189 33.7615 26.5489 32.7562 27.5504C31.7509 28.552 30.3889 29.1131 28.9699 29.1105Z" fill="#FF7A59"/>
</g>
</g>
</g>
<defs>
<clipPath id="clip0_1511_6251">
<rect width="40" height="40" fill="white" transform="translate(0.330078 0.290039)"/>
</clipPath>
<clipPath id="clip1_1511_6251">
<rect width="40" height="40" fill="white" transform="translate(0.330078 0.290039)"/>
</clipPath>
</defs>
</svg>
