<svg width="41" height="41" viewBox="0 0 41 41" fill="none" xmlns="http://www.w3.org/2000/svg">
<g clip-path="url(#clip0_1511_6234)">
<path d="M29.2531 20.749L30.5251 13.004C30.8921 10.643 30.5251 9.03404 29.2601 7.58304C27.8761 5.97304 25.3681 5.29004 22.1651 5.29004H12.8631C12.5461 5.29004 12.2391 5.40404 11.9971 5.61304C11.7551 5.82324 11.5953 6.11231 11.5461 6.42904L7.66909 31.356C7.65193 31.4716 7.65955 31.5895 7.69145 31.7019C7.72334 31.8144 7.77878 31.9187 7.85409 32.008C7.92901 32.0962 8.02216 32.1671 8.12713 32.2158C8.2321 32.2645 8.34638 32.2898 8.46209 32.29H14.9511C14.9511 32.29 29.6941 20.984 29.2531 20.749Z" fill="#253B80"/>
<path d="M31.0301 13.29C31.0301 13.467 30.9681 13.644 30.9291 13.828C29.6541 20.036 25.2951 22.181 19.7311 22.181H16.8941C16.5679 22.1787 16.251 22.2893 15.9971 22.494C15.7471 22.697 15.5831 22.979 15.5341 23.287L14.0811 32.017L13.6691 34.494C13.6516 34.5929 13.6573 34.6944 13.6856 34.7906C13.7138 34.8869 13.764 34.9753 13.8321 35.049C13.9011 35.1253 13.9857 35.186 14.0801 35.227C14.176 35.2688 14.2795 35.2903 14.3841 35.29H19.4121C19.7001 35.29 19.9791 35.193 20.1981 35.016C20.4181 34.839 20.5631 34.594 20.6081 34.324L20.6631 34.081L21.6031 28.381L21.6661 28.065C21.7141 27.7922 21.8599 27.5462 22.0761 27.373C22.2961 27.196 22.5751 27.099 22.8631 27.099H23.6401C28.5121 27.099 32.3201 25.219 33.4391 19.793C33.9051 17.522 33.6641 15.627 32.4291 14.3C32.0287 13.8799 31.554 13.5375 31.0291 13.29H31.0301Z" fill="#179BD7"/>
<path d="M29.3662 12.7282C29.1742 12.6732 28.9808 12.6235 28.7862 12.5792L28.1702 12.4612C27.3682 12.3444 26.5586 12.2876 25.7482 12.2912H18.4202C18.142 12.2901 17.8726 12.3881 17.6602 12.5677C17.4478 12.7473 17.3063 12.9967 17.2612 13.2712L15.7042 23.0082L15.6602 23.2902C15.7078 22.9787 15.867 22.6951 16.1082 22.4922C16.3502 22.2872 16.6582 22.1762 16.9762 22.1772H19.7222C25.1082 22.1772 29.3292 20.0192 30.5622 13.7742C30.6002 13.5882 30.6302 13.4102 30.6602 13.2322C30.3342 13.0631 29.9947 12.9216 29.6452 12.8092L29.3662 12.7282Z" fill="#222D65"/>
</g>
<defs>
<clipPath id="clip0_1511_6234">
<rect width="40" height="40" fill="white" transform="translate(0.660156 0.290039)"/>
</clipPath>
</defs>
</svg>
