<svg width="40" height="41" viewBox="0 0 40 41" fill="none" xmlns="http://www.w3.org/2000/svg">
<g clip-path="url(#clip0_1511_6271)">
<mask id="mask0_1511_6271" style="mask-type:luminance" maskUnits="userSpaceOnUse" x="0" y="0" width="40" height="41">
<path d="M0 0.299805H40V40.2998H0V0.299805Z" fill="white"/>
</mask>
<g mask="url(#mask0_1511_6271)">
<mask id="mask1_1511_6271" style="mask-type:luminance" maskUnits="userSpaceOnUse" x="0" y="0" width="40" height="41">
<path d="M0 0.299805H40V40.2998H0V0.299805Z" fill="white"/>
</mask>
<g mask="url(#mask1_1511_6271)">
<path d="M35.2 0.299805H4.8C3.52696 0.299805 2.30606 0.805518 1.40589 1.70569C0.505713 2.60587 0 3.82677 0 5.0998L0 35.4998C0 36.1302 0.124156 36.7543 0.365378 37.3367C0.606601 37.919 0.960166 38.4482 1.40589 38.8939C1.85161 39.3396 2.38076 39.6932 2.96312 39.9344C3.54548 40.1756 4.16966 40.2998 4.8 40.2998H35.2C36.473 40.2998 37.6939 39.7941 38.5941 38.8939C39.4943 37.9937 40 36.7728 40 35.4998V5.0998C40 3.82677 39.4943 2.60587 38.5941 1.70569C37.6939 0.805518 36.473 0.299805 35.2 0.299805Z" fill="#F79009"/>
<path d="M6.0284 32.8396L6.0224 32.8206L9.6304 29.5195V27.9295H3.8434V29.5195H7.2994L7.3054 29.5346L3.7334 32.8396V34.4296H9.6874V32.8396H6.0284ZM13.2404 27.7765C12.5724 27.7765 12.0284 27.8765 11.6074 28.0785C11.2162 28.2545 10.8867 28.5436 10.6614 28.9085C10.4456 29.276 10.3099 29.685 10.2634 30.1086L12.0194 30.3546C12.0824 29.9806 12.2094 29.7156 12.3994 29.5596C12.6174 29.3966 12.8834 29.3136 13.1554 29.3266C13.5114 29.3266 13.7694 29.4216 13.9304 29.6116C14.0894 29.8016 14.1704 30.0666 14.1704 30.4136V30.5876H12.4824C11.6224 30.5876 11.0054 30.7775 10.6304 31.1585C10.2554 31.5395 10.0674 32.0426 10.0684 32.6686C10.0684 33.3086 10.2554 33.7846 10.6304 34.0966C11.0054 34.4096 11.4764 34.5646 12.0444 34.5626C12.7484 34.5626 13.2904 34.3205 13.6694 33.8355C13.8933 33.5382 14.0533 33.1977 14.1394 32.8355H14.2024L14.4444 34.4255H16.0344V30.3966C16.0344 29.5646 15.8144 28.9196 15.3774 28.4626C14.9374 28.0046 14.2274 27.7765 13.2404 27.7765ZM13.7964 32.7416C13.5434 32.9526 13.2134 33.0575 12.8014 33.0575C12.4614 33.0575 12.2264 32.9976 12.0944 32.8796C12.0297 32.8235 11.9782 32.7538 11.9436 32.6755C11.909 32.5971 11.8922 32.5121 11.8944 32.4265C11.8908 32.3459 11.9037 32.2654 11.9322 32.19C11.9607 32.1145 12.0044 32.0456 12.0604 31.9876C12.1207 31.931 12.1919 31.8873 12.2696 31.8589C12.3472 31.8306 12.4298 31.8182 12.5124 31.8226H14.1724V31.9325C14.1759 32.0873 14.1439 32.2409 14.0787 32.3813C14.0135 32.5218 13.9169 32.6443 13.7964 32.7416ZM25.6554 27.9286H23.7754V34.4306H25.6554V27.9286ZM36.7524 27.9286C36.2214 27.9286 35.8024 28.1156 35.4964 28.4896C35.2764 28.7596 35.1094 29.1566 34.9964 29.6836H34.9404L34.6944 27.9276H33.0904V34.4296H34.9704V31.0956C34.9704 30.6756 35.0684 30.3526 35.2654 30.1286C35.4624 29.9046 35.8254 29.7916 36.3554 29.7916H37.0684V27.9295L36.7524 27.9286ZM31.2244 28.1406C30.7844 27.8806 30.2314 27.7506 29.5644 27.7506C28.5124 27.7506 27.6894 28.0506 27.0944 28.6476C26.4994 29.2476 26.2024 30.0726 26.2024 31.1246C26.1872 31.7609 26.3261 32.3915 26.6074 32.9625C26.8654 33.4705 27.2654 33.8925 27.7604 34.1765C28.2584 34.4645 28.8504 34.6086 29.5364 34.6096C30.1304 34.6096 30.6264 34.5175 31.0244 34.3345C31.3994 34.1705 31.7244 33.9145 31.9714 33.5875C32.2064 33.2675 32.3814 32.9075 32.4864 32.5245L30.8664 32.0706C30.7986 32.3196 30.6677 32.5469 30.4864 32.7306C30.3024 32.9126 29.9964 33.0046 29.5664 33.0046C29.0554 33.0046 28.6744 32.8575 28.4234 32.5645C28.2414 32.3545 28.1274 32.0516 28.0764 31.6606H32.5104C32.5294 31.4776 32.5384 31.3235 32.5384 31.2005V30.7956C32.5488 30.2514 32.4359 29.7119 32.2084 29.2175C31.996 28.7675 31.6527 28.3921 31.2234 28.1406H31.2244ZM29.5094 29.2996C30.2714 29.2996 30.7034 29.6746 30.8054 30.4246H28.1104C28.1534 30.1746 28.2574 29.9386 28.4124 29.7376C28.6594 29.4446 29.0244 29.2986 29.5094 29.2996ZM24.7364 25.3096C24.5949 25.3045 24.4539 25.328 24.3216 25.3785C24.1893 25.429 24.0685 25.5055 23.9664 25.6036C23.8662 25.7028 23.7878 25.8218 23.7359 25.953C23.6841 26.0841 23.6601 26.2246 23.6654 26.3656C23.6605 26.5074 23.6849 26.6487 23.7369 26.7807C23.7889 26.9128 23.8676 27.0327 23.9679 27.133C24.0683 27.2334 24.1882 27.312 24.3202 27.3641C24.4522 27.4161 24.5936 27.4404 24.7354 27.4356C24.8769 27.4413 25.018 27.4175 25.1497 27.3656C25.2814 27.3137 25.4008 27.2348 25.5003 27.1341C25.5998 27.0334 25.6772 26.913 25.7275 26.7807C25.7778 26.6483 25.7999 26.5069 25.7924 26.3656C25.7986 26.2253 25.7756 26.0853 25.7248 25.9544C25.674 25.8235 25.5966 25.7047 25.4973 25.6053C25.3981 25.506 25.2793 25.4284 25.1485 25.3775C25.0176 25.3266 24.8767 25.3034 24.7364 25.3096ZM20.8534 27.7506C20.2134 27.7506 19.6994 27.9516 19.3104 28.3536C19.0224 28.6516 18.8104 29.0966 18.6774 29.6876H18.6174L18.3714 27.9316H16.7664V36.2996H18.6464V32.8526H18.7144C18.7714 33.0826 18.8524 33.3056 18.9544 33.5196C19.1134 33.8676 19.3744 34.1595 19.7024 34.3565C20.0424 34.5415 20.4254 34.6336 20.8124 34.6236C21.5994 34.6236 22.1984 34.3175 22.6104 33.7035C23.0204 33.0915 23.2274 32.2366 23.2274 31.1396C23.2274 30.0796 23.0274 29.2496 22.6304 28.6496C22.2324 28.0496 21.6404 27.7506 20.8534 27.7506ZM21.0434 32.4625C20.8254 32.7795 20.4824 32.9386 20.0154 32.9386C19.8229 32.9474 19.6311 32.9102 19.4559 32.8303C19.2806 32.7503 19.1269 32.6297 19.0074 32.4786C18.7644 32.1726 18.6434 31.7546 18.6434 31.2236V31.0995C18.6434 30.5595 18.7654 30.1476 19.0074 29.8606C19.2504 29.5746 19.5864 29.4326 20.0154 29.4356C20.4904 29.4356 20.8354 29.5866 21.0504 29.8886C21.2664 30.1896 21.3734 30.6106 21.3734 31.1506C21.3754 31.7086 21.2654 32.1455 21.0464 32.4605H21.0444L21.0434 32.4625Z" fill="#FFFDF9"/>
</g>
</g>
</g>
<defs>
<clipPath id="clip0_1511_6271">
<rect width="40" height="40" fill="white" transform="translate(0 0.299805)"/>
</clipPath>
</defs>
</svg>
