<svg width="117" height="41" viewBox="0 0 117 41" fill="none" xmlns="http://www.w3.org/2000/svg">
<g filter="url(#filter0_dd_1511_5539)">
<mask id="mask0_1511_5539" style="mask-type:luminance" maskUnits="userSpaceOnUse" x="4" y="3" width="32" height="33">
<path d="M28 3.61719H12C9.87827 3.61719 7.84344 4.46004 6.34315 5.96033C4.84285 7.46062 4 9.49546 4 11.6172V27.6172C4 29.7389 4.84285 31.7737 6.34315 33.274C7.84344 34.7743 9.87827 35.6172 12 35.6172H28C30.1217 35.6172 32.1566 34.7743 33.6569 33.274C35.1571 31.7737 36 29.7389 36 27.6172V11.6172C36 9.49546 35.1571 7.46062 33.6569 5.96033C32.1566 4.46004 30.1217 3.61719 28 3.61719Z" fill="white"/>
</mask>
<g mask="url(#mask0_1511_5539)">
<path d="M28 3.61719H12C9.87827 3.61719 7.84344 4.46004 6.34315 5.96033C4.84285 7.46062 4 9.49546 4 11.6172V27.6172C4 29.7389 4.84285 31.7737 6.34315 33.274C7.84344 34.7743 9.87827 35.6172 12 35.6172H28C30.1217 35.6172 32.1566 34.7743 33.6569 33.274C35.1571 31.7737 36 29.7389 36 27.6172V11.6172C36 9.49546 35.1571 7.46062 33.6569 5.96033C32.1566 4.46004 30.1217 3.61719 28 3.61719Z" fill="#178D72"/>
<path d="M4 3.61719H36V35.6172H4V3.61719Z" fill="url(#paint0_linear_1511_5539)"/>
<path d="M17.625 10.1172C17.625 12.0069 16.8743 13.8191 15.5381 15.1553C14.2019 16.4915 12.3897 17.2422 10.5 17.2422V21.9922H17.625V29.1172H22.375C22.375 27.2275 23.1257 25.4152 24.4619 24.0791C25.7981 22.7429 27.6103 21.9922 29.5 21.9922V17.2422H22.375V10.1172H17.625Z" fill="url(#paint1_linear_1511_5539)"/>
</g>
<path d="M28 4.28516H12C10.0552 4.28516 8.18998 5.05774 6.81478 6.43294C5.43957 7.80815 4.66699 9.67332 4.66699 11.6182V27.6182C4.66699 29.563 5.43957 31.4282 6.81478 32.8034C8.18998 34.1786 10.0552 34.9512 12 34.9512H28C29.9448 34.9512 31.81 34.1786 33.1852 32.8034C34.5604 31.4282 35.333 29.563 35.333 27.6182V11.6182C35.333 9.67332 34.5604 7.80815 33.1852 6.43294C31.81 5.05774 29.9448 4.28516 28 4.28516Z" stroke="url(#paint2_linear_1511_5539)" stroke-width="2"/>
</g>
<path d="M113.052 17.0772V11.9132C113.052 11.4591 113.233 11.0237 113.554 10.7026C113.875 10.3815 114.31 10.2012 114.764 10.2012C115.219 10.2012 115.654 10.3815 115.975 10.7026C116.296 11.0237 116.476 11.4591 116.476 11.9132V26.1872C116.476 26.7176 116.266 27.2263 115.891 27.6014C115.516 27.9765 115.007 28.1872 114.476 28.1872H113.052V26.5422C111.974 28.0252 110.787 28.6182 108.873 28.6182C105.179 28.6182 102.698 25.9762 102.698 22.0662C102.698 19.9632 103.399 18.2102 104.693 16.9962C105.88 15.8912 107.39 15.2712 108.927 15.2712C110.625 15.2712 111.839 15.8112 113.052 17.0782V17.0772ZM109.736 18.1552C107.767 18.1552 106.338 19.8002 106.338 22.0922C106.338 24.2492 107.767 25.8672 109.709 25.8672C111.596 25.8672 113.052 24.2222 113.052 22.0652C113.052 19.8002 111.65 18.1552 109.736 18.1552ZM90.2345 17.7012C90.2345 17.1707 90.4452 16.662 90.8203 16.287C91.1953 15.9119 91.704 15.7012 92.2345 15.7012H93.6595V17.2382C94.5755 15.8092 95.4925 15.2702 97.0565 15.2702C98.2435 15.2702 99.3755 15.7012 100.13 16.4302C100.939 17.2382 101.235 18.2362 101.235 20.2852V28.1852H97.8115V20.4472C97.8115 19.7462 97.7315 19.3422 97.5145 18.9912C97.1915 18.4792 96.5445 18.1552 95.8705 18.1552C94.5485 18.1552 93.6595 19.1532 93.6595 20.6092V28.1852H90.2345V17.7012ZM88.8415 22.7662H79.0815C79.3775 24.4922 80.6445 25.5702 82.3435 25.5702C83.6105 25.5702 84.6895 24.9502 85.2285 23.9522L88.3835 24.8152C87.1435 27.2422 84.9595 28.6172 82.3165 28.6172C78.3535 28.6172 75.5215 25.8132 75.5215 21.9302C75.5215 18.0202 78.2455 15.2702 82.1015 15.2702C86.0915 15.2702 88.8685 18.0742 88.8685 22.0922L88.8415 22.7662ZM79.0815 20.7982H85.3365C85.0405 19.1532 83.8535 18.1552 82.1545 18.1552C80.5105 18.1552 79.4045 19.0992 79.0815 20.7982Z" fill="black"/>
<path d="M69.6773 24.7882L67.3853 28.1862H63.3403L67.6813 21.9842L63.0713 15.7012H67.3853L69.6763 19.0182L71.8883 15.7022H76.0673L71.6173 21.9842L75.9863 28.1852H71.8343L69.6773 24.7882Z" fill="black"/>
<path d="M63.8496 22.7662H54.0896C54.3866 24.4922 55.6536 25.5702 57.3516 25.5702C58.6196 25.5702 59.6976 24.9502 60.2376 23.9522L63.3916 24.8152C62.1516 27.2422 59.9676 28.6172 57.3256 28.6172C53.3616 28.6172 50.5306 25.8132 50.5306 21.9302C50.5306 18.0202 53.2536 15.2702 57.1096 15.2702C61.0996 15.2702 63.8776 18.0742 63.8776 22.0922L63.8506 22.7662H63.8496ZM54.0896 20.7982H60.3446C60.0486 19.1532 58.8616 18.1552 57.1636 18.1552C55.5186 18.1552 54.4136 19.0992 54.0896 20.7982ZM49.0226 26.4732C49.0226 26.9272 48.8423 27.3627 48.5212 27.6837C48.2001 28.0048 47.7647 28.1852 47.3106 28.1852C46.8566 28.1852 46.4211 28.0048 46.1001 27.6837C45.779 27.3627 45.5986 26.9272 45.5986 26.4732V11.9132C45.5986 11.4591 45.779 11.0237 46.1001 10.7026C46.4211 10.3815 46.8566 10.2012 47.3106 10.2012C47.7647 10.2012 48.2001 10.3815 48.5212 10.7026C48.8423 11.0237 49.0226 11.4591 49.0226 11.9132V26.4732Z" fill="black"/>
<defs>
<filter id="filter0_dd_1511_5539" x="0.666992" y="1.28516" width="38.666" height="38.666" filterUnits="userSpaceOnUse" color-interpolation-filters="sRGB">
<feFlood flood-opacity="0" result="BackgroundImageFix"/>
<feColorMatrix in="SourceAlpha" type="matrix" values="0 0 0 0 0 0 0 0 0 0 0 0 0 0 0 0 0 0 127 0" result="hardAlpha"/>
<feOffset dy="1"/>
<feGaussianBlur stdDeviation="1"/>
<feColorMatrix type="matrix" values="0 0 0 0 0.0627451 0 0 0 0 0.0941176 0 0 0 0 0.156863 0 0 0 0.06 0"/>
<feBlend mode="normal" in2="BackgroundImageFix" result="effect1_dropShadow_1511_5539"/>
<feColorMatrix in="SourceAlpha" type="matrix" values="0 0 0 0 0 0 0 0 0 0 0 0 0 0 0 0 0 0 127 0" result="hardAlpha"/>
<feOffset dy="1"/>
<feGaussianBlur stdDeviation="1.5"/>
<feColorMatrix type="matrix" values="0 0 0 0 0.0627451 0 0 0 0 0.0941176 0 0 0 0 0.156863 0 0 0 0.1 0"/>
<feBlend mode="normal" in2="effect1_dropShadow_1511_5539" result="effect2_dropShadow_1511_5539"/>
<feBlend mode="normal" in="SourceGraphic" in2="effect2_dropShadow_1511_5539" result="shape"/>
</filter>
<linearGradient id="paint0_linear_1511_5539" x1="20" y1="3.61719" x2="21.333" y2="35.6172" gradientUnits="userSpaceOnUse">
<stop stop-color="white"/>
<stop offset="1" stop-color="white" stop-opacity="0.12"/>
</linearGradient>
<linearGradient id="paint1_linear_1511_5539" x1="20" y1="10.1172" x2="20" y2="29.1172" gradientUnits="userSpaceOnUse">
<stop stop-color="white" stop-opacity="0.8"/>
<stop offset="1" stop-color="white" stop-opacity="0.5"/>
</linearGradient>
<linearGradient id="paint2_linear_1511_5539" x1="20" y1="3.61816" x2="20" y2="35.6182" gradientUnits="userSpaceOnUse">
<stop stop-color="white" stop-opacity="0.12"/>
<stop offset="1" stop-color="white"/>
</linearGradient>
</defs>
</svg>
