<svg width="25" height="26" viewBox="0 0 25 26" fill="none" xmlns="http://www.w3.org/2000/svg">
<path d="M10.4111 4.07812C10.7236 4.01562 11.0361 3.96875 11.3486 3.9375C11.6611 3.90625 11.9814 3.89062 12.3096 3.89062C13.4033 3.89062 14.4424 4.07812 15.4268 4.45312C16.4111 4.82812 17.2939 5.33594 18.0752 5.97656C17.4346 6.64844 16.7432 7.23437 16.001 7.73438C15.2588 8.23438 14.4502 8.66406 13.5752 9.02344C13.1377 8.22656 12.6572 7.42578 12.1338 6.62109C11.6104 5.81641 11.0361 4.96875 10.4111 4.07812ZM8.44238 4.75781C9.09863 5.66406 9.68848 6.51953 10.2119 7.32422C10.7354 8.12891 11.2158 8.92188 11.6533 9.70312C11.0908 9.85937 10.4971 10 9.87207 10.125C9.2627 10.25 8.62207 10.3594 7.9502 10.4531C7.27832 10.5469 6.5752 10.6172 5.84082 10.6641C5.10645 10.7266 4.34082 10.7734 3.54395 10.8047C3.71582 10.1328 3.9502 9.49219 4.24707 8.88281C4.54395 8.28906 4.90332 7.73438 5.3252 7.21875C5.74707 6.70312 6.22363 6.23438 6.75488 5.8125C7.27051 5.40625 7.83301 5.05469 8.44238 4.75781ZM3.30957 12.8203C4.2002 12.7891 5.05957 12.7422 5.8877 12.6797C6.71582 12.6172 7.5166 12.5312 8.29004 12.4219C9.06348 12.3125 9.80957 12.1875 10.5283 12.0469C11.2471 11.8906 11.9346 11.7109 12.5908 11.5078C12.6377 11.6016 12.6846 11.6953 12.7314 11.7891C12.7783 11.8828 12.8252 11.9766 12.8721 12.0703C12.9033 12.1641 12.9424 12.2617 12.9893 12.3633C13.0361 12.4648 13.083 12.5703 13.1299 12.6797C13.0674 12.6953 13.0088 12.7109 12.9541 12.7266C12.8994 12.7422 12.8408 12.7656 12.7783 12.7969C12.1221 13.0312 11.4814 13.3203 10.8564 13.6641C10.2314 14.0234 9.61426 14.4453 9.00488 14.9297C8.39551 15.4141 7.79395 15.9688 7.2002 16.5938C6.60645 17.2187 6.0127 17.9219 5.41895 18.7031C4.7627 17.9062 4.24707 17.0156 3.87207 16.0312C3.49707 15.0469 3.30957 14 3.30957 12.8906C3.30957 12.875 3.30957 12.8594 3.30957 12.8438C3.30957 12.8281 3.30957 12.8203 3.30957 12.8203ZM6.89551 20.0859C7.44238 19.3359 7.98926 18.6641 8.53613 18.0703C9.08301 17.4922 9.62988 16.9844 10.1768 16.5469C10.7236 16.1094 11.2705 15.7344 11.8174 15.4219C12.3643 15.125 12.9111 14.875 13.458 14.6719C13.5205 14.6406 13.5869 14.6172 13.6572 14.6016C13.7275 14.5859 13.8018 14.5625 13.8799 14.5312C14.2236 15.4688 14.5518 16.4805 14.8643 17.5664C15.1768 18.6523 15.4971 19.8594 15.8252 21.1875C15.2783 21.4062 14.7119 21.5781 14.126 21.7031C13.54 21.8281 12.9346 21.8906 12.3096 21.8906C11.2939 21.8906 10.3252 21.7305 9.40332 21.4102C8.48145 21.0898 7.64551 20.6484 6.89551 20.0859ZM17.6299 20.1562C17.333 19 17.0439 17.9258 16.7627 16.9336C16.4814 15.9414 16.1846 15.0156 15.8721 14.1562C16.6377 14.0625 17.4658 14.0469 18.3564 14.1094C19.2471 14.1719 20.1846 14.3125 21.1689 14.5312C20.9502 15.6875 20.5322 16.7461 19.915 17.707C19.2979 18.668 18.5361 19.4844 17.6299 20.1562ZM21.3096 12.5156C20.1846 12.2812 19.1025 12.1406 18.0635 12.0938C17.0244 12.0469 16.0439 12.0938 15.1221 12.2344C15.0439 12.0625 14.9697 11.8945 14.8994 11.7305C14.8291 11.5664 14.7549 11.3984 14.6768 11.2266C14.6455 11.1641 14.6143 11.0977 14.583 11.0273C14.5518 10.957 14.5205 10.8906 14.4893 10.8281C15.4268 10.4219 16.3096 9.94141 17.1377 9.38672C17.9658 8.83203 18.7393 8.17969 19.458 7.42969C20.0049 8.14844 20.4385 8.9375 20.7588 9.79688C21.0791 10.6563 21.2627 11.5625 21.3096 12.5156ZM12.3096 1.89844C10.7939 1.89844 9.36426 2.1875 8.02051 2.76562C6.69238 3.32812 5.52832 4.10937 4.52832 5.10938C3.52832 6.10938 2.74707 7.27344 2.18457 8.60156C1.60645 9.94531 1.31738 11.375 1.31738 12.8906C1.31738 14.4062 1.60645 15.8359 2.18457 17.1797C2.74707 18.5078 3.52832 19.6719 4.52832 20.6719C5.52832 21.6719 6.69238 22.4531 8.02051 23.0156C9.36426 23.5937 10.7939 23.8828 12.3096 23.8828C13.8252 23.8828 15.2549 23.5937 16.5986 23.0156C17.9268 22.4531 19.0908 21.6719 20.0908 20.6719C21.0908 19.6719 21.8721 18.5078 22.4346 17.1797C23.0127 15.8359 23.3018 14.4062 23.3018 12.8906C23.3018 11.375 23.0127 9.94531 22.4346 8.60156C21.8721 7.27344 21.0908 6.10938 20.0908 5.10938C19.0908 4.10937 17.9268 3.32812 16.5986 2.76562C15.2549 2.1875 13.8252 1.89844 12.3096 1.89844Z" fill="#8F8F94"/>
</svg>
