<svg width="25" height="26" viewBox="0 0 25 26" fill="none" xmlns="http://www.w3.org/2000/svg">
<path d="M20.3018 3.89062H4.31738C4.17676 3.89062 4.04785 3.91797 3.93066 3.97266C3.81348 4.02734 3.70801 4.10156 3.61426 4.19531C3.52051 4.28906 3.44629 4.39453 3.3916 4.51172C3.33691 4.62891 3.30957 4.75781 3.30957 4.89844V20.8828C3.30957 21.0234 3.33691 21.1523 3.3916 21.2695C3.44629 21.3867 3.52051 21.4922 3.61426 21.5859C3.70801 21.6797 3.81348 21.7539 3.93066 21.8086C4.04785 21.8633 4.17676 21.8906 4.31738 21.8906H12.9189V14.9297H10.5752V12.2109H12.9189V10.1953C12.9189 9.03906 13.2432 8.15234 13.8916 7.53516C14.54 6.91797 15.3877 6.60938 16.4346 6.60938C16.7783 6.60938 17.126 6.61328 17.4775 6.62109C17.8291 6.62891 18.1768 6.66406 18.5205 6.72656V9.14062H17.0908C16.5283 9.14062 16.1611 9.26172 15.9893 9.50391C15.8174 9.74609 15.7314 10.0703 15.7314 10.4766V12.2109H18.4268L18.0752 14.9297H15.7314V21.8906H20.3018C20.4424 21.8906 20.5713 21.8633 20.6885 21.8086C20.8057 21.7539 20.9111 21.6797 21.0049 21.5859C21.0986 21.4922 21.1729 21.3867 21.2275 21.2695C21.2822 21.1523 21.3096 21.0234 21.3096 20.8828V4.89844C21.3096 4.75781 21.2822 4.62891 21.2275 4.51172C21.1729 4.39453 21.0986 4.28906 21.0049 4.19531C20.9111 4.10156 20.8057 4.02734 20.6885 3.97266C20.5713 3.91797 20.4424 3.89062 20.3018 3.89062Z" fill="#8F8F94"/>
</svg>
