<svg width="25" height="26" viewBox="0 0 25 26" fill="none" xmlns="http://www.w3.org/2000/svg">
<path d="M15.9424 5.55469C15.4736 5.53906 15.0518 5.52734 14.6768 5.51953C14.3018 5.51172 13.5127 5.50781 12.3096 5.50781C11.1064 5.50781 10.3174 5.51172 9.94238 5.51953C9.56738 5.52734 9.14551 5.53906 8.67676 5.55469C8.39551 5.57031 8.11426 5.60156 7.83301 5.64844C7.55176 5.69531 7.27832 5.77344 7.0127 5.88281C6.80957 5.94531 6.62207 6.03516 6.4502 6.15234C6.27832 6.26953 6.11426 6.39844 5.95801 6.53906C5.81738 6.69531 5.68848 6.85937 5.57129 7.03125C5.4541 7.20313 5.36426 7.39062 5.30176 7.59375C5.19238 7.85937 5.11426 8.13281 5.06738 8.41406C5.02051 8.69531 4.98926 8.97656 4.97363 9.25781C4.95801 9.72656 4.94629 10.1484 4.93848 10.5234C4.93066 10.8984 4.92676 11.6875 4.92676 12.8906C4.92676 14.0937 4.93066 14.8828 4.93848 15.2578C4.94629 15.6328 4.95801 16.0547 4.97363 16.5234C4.98926 16.8047 5.02051 17.0859 5.06738 17.3672C5.11426 17.6484 5.19238 17.9219 5.30176 18.1875C5.36426 18.3906 5.4541 18.5781 5.57129 18.75C5.68848 18.9219 5.81738 19.0859 5.95801 19.2422C6.11426 19.3828 6.27832 19.5117 6.4502 19.6289C6.62207 19.7461 6.80957 19.8359 7.0127 19.8984C7.27832 20.0078 7.55176 20.0859 7.83301 20.1328C8.11426 20.1797 8.39551 20.2109 8.67676 20.2266C9.14551 20.2422 9.56738 20.2539 9.94238 20.2617C10.3174 20.2695 11.1064 20.2734 12.3096 20.2734C13.5127 20.2734 14.3018 20.2695 14.6768 20.2617C15.0518 20.2539 15.4736 20.2422 15.9424 20.2266C16.2236 20.2109 16.5049 20.1797 16.7861 20.1328C17.0674 20.0859 17.3408 20.0078 17.6064 19.8984C17.8096 19.8359 17.9971 19.7461 18.1689 19.6289C18.3408 19.5117 18.5049 19.3828 18.6611 19.2422C18.8018 19.0859 18.9307 18.9219 19.0479 18.75C19.165 18.5781 19.2549 18.3906 19.3174 18.1875C19.4268 17.9219 19.5049 17.6484 19.5518 17.3672C19.5986 17.0859 19.6299 16.8047 19.6455 16.5234C19.6611 16.0547 19.6729 15.6328 19.6807 15.2578C19.6885 14.8828 19.6924 14.0937 19.6924 12.8906C19.6924 11.6875 19.6885 10.8984 19.6807 10.5234C19.6729 10.1484 19.6611 9.72656 19.6455 9.25781C19.6299 8.97656 19.5986 8.69531 19.5518 8.41406C19.5049 8.13281 19.4268 7.85937 19.3174 7.59375C19.2549 7.39062 19.165 7.20313 19.0479 7.03125C18.9307 6.85937 18.8018 6.69531 18.6611 6.53906C18.5049 6.39844 18.3408 6.26953 18.1689 6.15234C17.9971 6.03516 17.8096 5.94531 17.6064 5.88281C17.3408 5.77344 17.0674 5.69531 16.7861 5.64844C16.5049 5.60156 16.2236 5.57031 15.9424 5.55469ZM8.60645 3.9375C9.0752 3.92187 9.50488 3.91016 9.89551 3.90234C10.2861 3.89453 11.0908 3.89062 12.3096 3.89062C13.5283 3.89062 14.333 3.89453 14.7236 3.90234C15.1143 3.91016 15.5439 3.92187 16.0127 3.9375C16.3877 3.95313 16.7588 3.99609 17.126 4.06641C17.4932 4.13672 17.8564 4.23437 18.2158 4.35938C18.5127 4.48438 18.7939 4.63281 19.0596 4.80469C19.3252 4.97656 19.5752 5.17188 19.8096 5.39062C20.0283 5.625 20.2236 5.875 20.3955 6.14062C20.5674 6.40625 20.7158 6.6875 20.8408 6.98438C20.9658 7.34375 21.0635 7.70703 21.1338 8.07422C21.2041 8.44141 21.2471 8.8125 21.2627 9.1875C21.2783 9.65625 21.29 10.0859 21.2979 10.4766C21.3057 10.8672 21.3096 11.6719 21.3096 12.8906C21.3096 14.1094 21.3057 14.9141 21.2979 15.3047C21.29 15.6953 21.2783 16.125 21.2627 16.5938C21.2471 16.9688 21.2041 17.3398 21.1338 17.707C21.0635 18.0742 20.9658 18.4375 20.8408 18.7969C20.7158 19.0938 20.5674 19.375 20.3955 19.6406C20.2236 19.9062 20.0283 20.1562 19.8096 20.3906C19.5752 20.6094 19.3252 20.8047 19.0596 20.9766C18.7939 21.1484 18.5127 21.2969 18.2158 21.4219C17.8564 21.5469 17.4932 21.6445 17.126 21.7148C16.7588 21.7852 16.3877 21.8281 16.0127 21.8438C15.5439 21.8594 15.1143 21.8711 14.7236 21.8789C14.333 21.8867 13.5283 21.8906 12.3096 21.8906C11.0908 21.8906 10.2861 21.8867 9.89551 21.8789C9.50488 21.8711 9.0752 21.8594 8.60645 21.8438C8.23145 21.8281 7.86035 21.7852 7.49316 21.7148C7.12598 21.6445 6.7627 21.5469 6.40332 21.4219C6.10645 21.2969 5.8252 21.1484 5.55957 20.9766C5.29395 20.8047 5.04395 20.6094 4.80957 20.3906C4.59082 20.1562 4.39551 19.9062 4.22363 19.6406C4.05176 19.375 3.90332 19.0938 3.77832 18.7969C3.65332 18.4375 3.55566 18.0742 3.48535 17.707C3.41504 17.3398 3.37207 16.9688 3.35645 16.5938C3.34082 16.125 3.3291 15.6953 3.32129 15.3047C3.31348 14.9141 3.30957 14.1094 3.30957 12.8906C3.30957 11.6719 3.31348 10.8672 3.32129 10.4766C3.3291 10.0859 3.34082 9.65625 3.35645 9.1875C3.37207 8.8125 3.41504 8.44141 3.48535 8.07422C3.55566 7.70703 3.65332 7.34375 3.77832 6.98438C3.90332 6.6875 4.05176 6.40625 4.22363 6.14062C4.39551 5.875 4.59082 5.625 4.80957 5.39062C5.04395 5.17188 5.29395 4.97656 5.55957 4.80469C5.8252 4.63281 6.10645 4.48438 6.40332 4.35938C6.7627 4.23437 7.12598 4.13672 7.49316 4.06641C7.86035 3.99609 8.23145 3.95313 8.60645 3.9375ZM17.1143 9.16406C17.4111 9.16406 17.665 9.05859 17.876 8.84766C18.0869 8.63672 18.1924 8.38281 18.1924 8.08594C18.1924 7.78906 18.0869 7.53516 17.876 7.32422C17.665 7.11328 17.4111 7.00781 17.1143 7.00781C16.8174 7.00781 16.5635 7.11328 16.3525 7.32422C16.1416 7.53516 16.0361 7.78906 16.0361 8.08594C16.0361 8.38281 16.1416 8.63672 16.3525 8.84766C16.5635 9.05859 16.8174 9.16406 17.1143 9.16406ZM12.3096 8.27344C11.8564 8.27344 11.4111 8.33984 10.9736 8.47266C10.5361 8.60547 10.1221 8.79687 9.73145 9.04688C9.35645 9.29688 9.02441 9.60156 8.73535 9.96094C8.44629 10.3203 8.21582 10.7109 8.04395 11.1328C7.87207 11.5547 7.7627 11.9922 7.71582 12.4453C7.66895 12.8984 7.69238 13.3438 7.78613 13.7812C7.86426 14.2344 8.0127 14.6641 8.23145 15.0703C8.4502 15.4766 8.72363 15.8359 9.05176 16.1484C9.36426 16.4766 9.72363 16.75 10.1299 16.9688C10.5361 17.1875 10.9658 17.3359 11.4189 17.4141C11.8564 17.5078 12.3018 17.5312 12.7549 17.4844C13.208 17.4375 13.6455 17.3281 14.0674 17.1562C14.4893 16.9844 14.8799 16.7539 15.2393 16.4648C15.5986 16.1758 15.9033 15.8438 16.1533 15.4688C16.4033 15.0781 16.5947 14.6641 16.7275 14.2266C16.8604 13.7891 16.9268 13.3438 16.9268 12.8906C16.9268 12.2812 16.8096 11.6914 16.5752 11.1211C16.3408 10.5508 16.0049 10.0547 15.5674 9.63281C15.1455 9.19531 14.6494 8.85938 14.0791 8.625C13.5088 8.39062 12.9189 8.27344 12.3096 8.27344ZM12.3096 15.8906C12.0127 15.8906 11.7236 15.8477 11.4424 15.7617C11.1611 15.6758 10.8955 15.5469 10.6455 15.375C10.3955 15.2188 10.1768 15.0273 9.98926 14.8008C9.80176 14.5742 9.65332 14.3203 9.54395 14.0391C9.41895 13.7578 9.34473 13.4727 9.32129 13.1836C9.29785 12.8945 9.30957 12.6016 9.35645 12.3047C9.41895 12.0078 9.52051 11.7305 9.66113 11.4727C9.80176 11.2148 9.97363 10.9766 10.1768 10.7578C10.3955 10.5547 10.6338 10.3828 10.8916 10.2422C11.1494 10.1016 11.4268 10 11.7236 9.9375C12.0205 9.89062 12.3135 9.87891 12.6025 9.90234C12.8916 9.92578 13.1768 10 13.458 10.125C13.7393 10.2344 13.9932 10.3828 14.2197 10.5703C14.4463 10.7578 14.6377 10.9766 14.7939 11.2266C14.9658 11.4766 15.0947 11.7422 15.1807 12.0234C15.2666 12.3047 15.3096 12.5937 15.3096 12.8906C15.3096 13.2812 15.2354 13.6641 15.0869 14.0391C14.9385 14.4141 14.7236 14.7422 14.4424 15.0234C14.1611 15.3047 13.833 15.5195 13.458 15.668C13.083 15.8164 12.7002 15.8906 12.3096 15.8906Z" fill="#8F8F94"/>
</svg>
