<svg width="117" height="40" viewBox="0 0 117 40" fill="none" xmlns="http://www.w3.org/2000/svg">
<g clip-path="url(#clip0_1511_6864)">
<g clip-path="url(#clip1_1511_6864)">
<g clip-path="url(#clip2_1511_6864)">
<g filter="url(#filter0_dd_1511_6864)">
<mask id="mask0_1511_6864" style="mask-type:luminance" maskUnits="userSpaceOnUse" x="4" y="3" width="32" height="32">
<path d="M28 3H12C9.87827 3 7.84344 3.84285 6.34315 5.34315C4.84285 6.84344 4 8.87827 4 11V27C4 29.1217 4.84285 31.1566 6.34315 32.6569C7.84344 34.1571 9.87827 35 12 35H28C30.1217 35 32.1566 34.1571 33.6569 32.6569C35.1571 31.1566 36 29.1217 36 27V11C36 8.87827 35.1571 6.84344 33.6569 5.34315C32.1566 3.84285 30.1217 3 28 3Z" fill="white"/>
</mask>
<g mask="url(#mask0_1511_6864)">
<path d="M28 3H12C9.87827 3 7.84344 3.84285 6.34315 5.34315C4.84285 6.84344 4 8.87827 4 11V27C4 29.1217 4.84285 31.1566 6.34315 32.6569C7.84344 34.1571 9.87827 35 12 35H28C30.1217 35 32.1566 34.1571 33.6569 32.6569C35.1571 31.1566 36 29.1217 36 27V11C36 8.87827 35.1571 6.84344 33.6569 5.34315C32.1566 3.84285 30.1217 3 28 3Z" fill="#178D72"/>
<path d="M4 3H36V35H4V3Z" fill="url(#paint0_linear_1511_6864)"/>
<path d="M17.625 9.5C17.625 11.3897 16.8743 13.2019 15.5381 14.5381C14.2019 15.8743 12.3897 16.625 10.5 16.625V21.375H17.625V28.5H22.375C22.375 26.6103 23.1257 24.7981 24.4619 23.4619C25.7981 22.1257 27.6103 21.375 29.5 21.375V16.625H22.375V9.5H17.625Z" fill="url(#paint1_linear_1511_6864)"/>
</g>
<path d="M28 3.66699H12C10.0552 3.66699 8.18998 4.43957 6.81478 5.81478C5.43957 7.18998 4.66699 9.05516 4.66699 11V27C4.66699 28.9448 5.43957 30.81 6.81478 32.1852C8.18998 33.5604 10.0552 34.333 12 34.333H28C29.9448 34.333 31.81 33.5604 33.1852 32.1852C34.5604 30.81 35.333 28.9448 35.333 27V11C35.333 9.05516 34.5604 7.18998 33.1852 5.81478C31.81 4.43957 29.9448 3.66699 28 3.66699Z" stroke="url(#paint2_linear_1511_6864)" stroke-width="2"/>
</g>
<path d="M113.052 16.46V11.296C113.052 10.8419 113.233 10.4065 113.554 10.0854C113.875 9.76436 114.31 9.58398 114.764 9.58398C115.219 9.58398 115.654 9.76436 115.975 10.0854C116.296 10.4065 116.476 10.8419 116.476 11.296V25.57C116.476 26.1004 116.266 26.6091 115.891 26.9842C115.516 27.3593 115.007 27.57 114.476 27.57H113.052V25.925C111.974 27.408 110.787 28.001 108.873 28.001C105.179 28.001 102.698 25.359 102.698 21.449C102.698 19.346 103.399 17.593 104.693 16.379C105.88 15.274 107.39 14.654 108.927 14.654C110.625 14.654 111.839 15.194 113.052 16.461V16.46ZM109.736 17.538C107.767 17.538 106.338 19.183 106.338 21.475C106.338 23.632 107.767 25.25 109.709 25.25C111.596 25.25 113.052 23.605 113.052 21.448C113.052 19.183 111.65 17.538 109.736 17.538ZM90.2345 17.084C90.2345 16.5536 90.4452 16.0448 90.8203 15.6698C91.1953 15.2947 91.704 15.084 92.2345 15.084H93.6595V16.621C94.5755 15.192 95.4925 14.653 97.0565 14.653C98.2435 14.653 99.3755 15.084 100.13 15.813C100.939 16.621 101.235 17.619 101.235 19.668V27.568H97.8115V19.83C97.8115 19.129 97.7315 18.725 97.5145 18.374C97.1915 17.862 96.5445 17.538 95.8705 17.538C94.5485 17.538 93.6595 18.536 93.6595 19.992V27.568H90.2345V17.084ZM88.8415 22.149H79.0815C79.3775 23.875 80.6445 24.953 82.3435 24.953C83.6105 24.953 84.6895 24.333 85.2285 23.335L88.3835 24.198C87.1435 26.625 84.9595 28 82.3165 28C78.3535 28 75.5215 25.196 75.5215 21.313C75.5215 17.403 78.2455 14.653 82.1015 14.653C86.0915 14.653 88.8685 17.457 88.8685 21.475L88.8415 22.149ZM79.0815 20.181H85.3365C85.0405 18.536 83.8535 17.538 82.1545 17.538C80.5105 17.538 79.4045 18.482 79.0815 20.181Z" fill="white"/>
<path d="M69.6773 24.171L67.3853 27.569H63.3403L67.6813 21.367L63.0713 15.084H67.3853L69.6763 18.401L71.8883 15.085H76.0673L71.6173 21.367L75.9863 27.568H71.8343L69.6773 24.171Z" fill="white"/>
<path d="M63.8496 22.149H54.0896C54.3866 23.875 55.6536 24.953 57.3516 24.953C58.6196 24.953 59.6976 24.333 60.2376 23.335L63.3916 24.198C62.1516 26.625 59.9676 28 57.3256 28C53.3616 28 50.5306 25.196 50.5306 21.313C50.5306 17.403 53.2536 14.653 57.1096 14.653C61.0996 14.653 63.8776 17.457 63.8776 21.475L63.8506 22.149H63.8496ZM54.0896 20.181H60.3446C60.0486 18.536 58.8616 17.538 57.1636 17.538C55.5186 17.538 54.4136 18.482 54.0896 20.181ZM49.0226 25.856C49.0226 26.31 48.8423 26.7455 48.5212 27.0666C48.2001 27.3876 47.7647 27.568 47.3106 27.568C46.8566 27.568 46.4211 27.3876 46.1001 27.0666C45.779 26.7455 45.5986 26.31 45.5986 25.856V11.296C45.5986 10.8419 45.779 10.4065 46.1001 10.0854C46.4211 9.76436 46.8566 9.58398 47.3106 9.58398C47.7647 9.58398 48.2001 9.76436 48.5212 10.0854C48.8423 10.4065 49.0226 10.8419 49.0226 11.296V25.856Z" fill="white"/>
</g>
</g>
</g>
<defs>
<filter id="filter0_dd_1511_6864" x="0.666992" y="0.666992" width="38.666" height="38.666" filterUnits="userSpaceOnUse" color-interpolation-filters="sRGB">
<feFlood flood-opacity="0" result="BackgroundImageFix"/>
<feColorMatrix in="SourceAlpha" type="matrix" values="0 0 0 0 0 0 0 0 0 0 0 0 0 0 0 0 0 0 127 0" result="hardAlpha"/>
<feOffset dy="1"/>
<feGaussianBlur stdDeviation="1"/>
<feColorMatrix type="matrix" values="0 0 0 0 0.0627451 0 0 0 0 0.0941176 0 0 0 0 0.156863 0 0 0 0.06 0"/>
<feBlend mode="normal" in2="BackgroundImageFix" result="effect1_dropShadow_1511_6864"/>
<feColorMatrix in="SourceAlpha" type="matrix" values="0 0 0 0 0 0 0 0 0 0 0 0 0 0 0 0 0 0 127 0" result="hardAlpha"/>
<feOffset dy="1"/>
<feGaussianBlur stdDeviation="1.5"/>
<feColorMatrix type="matrix" values="0 0 0 0 0.0627451 0 0 0 0 0.0941176 0 0 0 0 0.156863 0 0 0 0.1 0"/>
<feBlend mode="normal" in2="effect1_dropShadow_1511_6864" result="effect2_dropShadow_1511_6864"/>
<feBlend mode="normal" in="SourceGraphic" in2="effect2_dropShadow_1511_6864" result="shape"/>
</filter>
<linearGradient id="paint0_linear_1511_6864" x1="20" y1="3" x2="21.333" y2="35" gradientUnits="userSpaceOnUse">
<stop stop-color="white"/>
<stop offset="1" stop-color="white" stop-opacity="0.12"/>
</linearGradient>
<linearGradient id="paint1_linear_1511_6864" x1="20" y1="9.5" x2="20" y2="28.5" gradientUnits="userSpaceOnUse">
<stop stop-color="white" stop-opacity="0.8"/>
<stop offset="1" stop-color="white" stop-opacity="0.5"/>
</linearGradient>
<linearGradient id="paint2_linear_1511_6864" x1="20" y1="2.99999" x2="20" y2="35" gradientUnits="userSpaceOnUse">
<stop stop-color="white" stop-opacity="0.12"/>
<stop offset="1" stop-color="white"/>
</linearGradient>
<clipPath id="clip0_1511_6864">
<rect width="117" height="40" fill="white"/>
</clipPath>
<clipPath id="clip1_1511_6864">
<rect width="117" height="40" fill="white"/>
</clipPath>
<clipPath id="clip2_1511_6864">
<rect width="117" height="40" fill="white"/>
</clipPath>
</defs>
</svg>
