<svg width="25" height="26" viewBox="0 0 25 26" fill="none" xmlns="http://www.w3.org/2000/svg">
<path d="M19.9736 3.89062H4.64551C4.47363 3.89062 4.30566 3.92187 4.1416 3.98438C3.97754 4.04688 3.83301 4.14062 3.70801 4.26562C3.58301 4.39063 3.48535 4.53125 3.41504 4.6875C3.34473 4.84375 3.30957 5.00781 3.30957 5.17969V20.5312C3.30957 20.7188 3.34473 20.8906 3.41504 21.0469C3.48535 21.2031 3.58301 21.3437 3.70801 21.4688C3.83301 21.5938 3.97754 21.6875 4.1416 21.75C4.30566 21.8125 4.47363 21.8438 4.64551 21.8438H19.9736C20.1455 21.8438 20.3135 21.8125 20.4775 21.75C20.6416 21.6875 20.7861 21.5938 20.9111 21.4688C21.0361 21.3437 21.1338 21.2031 21.2041 21.0469C21.2744 20.8906 21.3096 20.7188 21.3096 20.5312V5.17969C21.3096 5.00781 21.2744 4.84375 21.2041 4.6875C21.1338 4.53125 21.0361 4.39063 20.9111 4.26562C20.7861 4.14062 20.6416 4.04688 20.4775 3.98438C20.3135 3.92187 20.1455 3.89062 19.9736 3.89062ZM8.65332 19.1953H6.00488V10.6406H8.65332V19.1953ZM7.34082 9.44531C7.15332 9.44531 6.96191 9.40625 6.7666 9.32812C6.57129 9.25 6.40332 9.14062 6.2627 9C6.12207 8.85938 6.0127 8.69531 5.93457 8.50781C5.85645 8.32031 5.80957 8.125 5.79395 7.92188C5.79395 7.82812 5.80176 7.73047 5.81738 7.62891C5.83301 7.52734 5.86426 7.42969 5.91113 7.33594C5.94238 7.24219 5.98535 7.15234 6.04004 7.06641C6.09473 6.98047 6.16113 6.89844 6.23926 6.82031C6.31738 6.74219 6.39941 6.67578 6.48535 6.62109C6.57129 6.56641 6.66113 6.52344 6.75488 6.49219C6.84863 6.44531 6.94629 6.41406 7.04785 6.39844C7.14941 6.38281 7.24707 6.375 7.34082 6.375C7.54395 6.39063 7.73535 6.44141 7.91504 6.52734C8.09473 6.61328 8.24707 6.72656 8.37207 6.86719C8.5127 7.00781 8.61816 7.17188 8.68848 7.35938C8.75879 7.54688 8.79395 7.73438 8.79395 7.92188C8.79395 8.125 8.75879 8.31641 8.68848 8.49609C8.61816 8.67578 8.5127 8.83594 8.37207 8.97656C8.24707 9.13281 8.09473 9.25391 7.91504 9.33984C7.73535 9.42578 7.54395 9.46875 7.34082 9.46875V9.44531ZM18.6611 19.1484H16.0596V14.9531C16.0596 14.4531 16.001 13.9453 15.8838 13.4297C15.7666 12.9141 15.3564 12.6562 14.6533 12.6562C13.9658 12.6562 13.5283 12.8867 13.3408 13.3477C13.1533 13.8086 13.0596 14.3125 13.0596 14.8594V19.1016H10.3877V10.6406H12.8721V11.7656H12.9424C13.0674 11.5469 13.2197 11.3477 13.3994 11.168C13.5791 10.9883 13.7783 10.8359 13.9971 10.7109C14.2314 10.5859 14.4736 10.4961 14.7236 10.4414C14.9736 10.3867 15.2236 10.3594 15.4736 10.3594C16.8174 10.3594 17.6846 10.7578 18.0752 11.5547C18.4658 12.3516 18.6611 13.3203 18.6611 14.4609V19.1484Z" fill="#8F8F94"/>
</svg>
