<svg width="139" height="40" viewBox="0 0 139 40" fill="none" xmlns="http://www.w3.org/2000/svg">
<path fill-rule="evenodd" clip-rule="evenodd" d="M11.606 27.6373C5.51849 26.5107 0.910156 21.1748 0.910156 14.7623C0.910156 7.52817 6.77349 1.6665 14.0052 1.6665C20.4185 1.6665 25.7543 6.27567 26.881 12.3623C26.0894 12.2158 25.286 12.1421 24.481 12.1423C17.2493 12.1423 11.386 18.0057 11.386 25.2382C11.386 26.0573 11.461 26.859 11.606 27.6373Z" fill="#0E0E0F"/>
<path opacity="0.6" fill-rule="evenodd" clip-rule="evenodd" d="M14.0056 27.8568C21.2389 27.8568 27.1014 21.9943 27.1014 14.7618C27.1014 13.9427 27.0264 13.1401 26.8814 12.3618C32.9689 13.4901 37.5773 18.8252 37.5773 25.2393C37.5773 32.4702 31.7148 38.3335 24.4823 38.3335C18.0698 38.3335 12.7331 33.7243 11.6064 27.6377C12.398 27.7842 13.2014 27.8579 14.0064 27.8577L14.0056 27.8568Z" fill="#0E0E0F"/>
<path d="M57.2018 28.5333C61.6768 28.5333 64.9018 26.0083 65.2268 22.2583H61.4768C61.1768 24.0583 59.4518 25.2833 57.2018 25.2833C54.3768 25.2833 52.2018 23.3333 52.2018 19.5833C52.2018 15.8333 54.3768 13.8583 57.2018 13.8583C59.4018 13.8583 61.1268 15.0833 61.3768 16.9083H65.3018C64.8268 13.1333 61.6018 10.6333 57.2018 10.6333C52.5268 10.6333 48.4268 13.6833 48.4268 19.5833C48.4268 25.4833 52.4518 28.5333 57.2018 28.5333ZM72.1859 15.5333C68.7359 15.5333 66.6859 17.5583 66.5359 20.0833H69.6359C69.6859 19.0333 70.4609 18.0833 71.9859 18.0833C73.4109 18.0833 74.2359 18.8083 74.2359 19.8583C74.2359 20.3833 73.9109 20.7833 73.2859 20.7833H71.1609C68.4109 20.7833 66.5609 22.2833 66.5609 24.7583C66.5609 26.9083 68.2359 28.5333 70.6859 28.5333C72.4109 28.5333 73.8109 27.7583 74.2359 26.5833V28.3333H77.6859V20.2333C77.6859 17.3833 75.3609 15.5333 72.1859 15.5333ZM71.5609 26.0083C70.5859 26.0083 69.8859 25.4333 69.8859 24.6083C69.8859 23.6333 70.6359 22.9833 71.6859 22.9833H74.2359V23.1583C74.2359 24.7583 73.2609 26.0083 71.5609 26.0083ZM80.0218 33.4333H83.4968V27.2083C84.1718 28.0583 85.3968 28.5333 86.8218 28.5333C90.4468 28.5333 92.8968 25.9583 92.8968 22.0333C92.8968 18.1083 90.6468 15.5333 87.1218 15.5333C85.4968 15.5333 84.2468 16.1333 83.4968 17.1083V15.7333H80.0218V33.4333ZM86.3968 25.5333C84.5218 25.5333 83.2968 24.1333 83.2968 22.0333C83.2968 19.9083 84.5218 18.5083 86.3968 18.5083C88.2218 18.5083 89.4718 19.9083 89.4718 22.0333C89.4718 24.1333 88.2218 25.5333 86.3968 25.5333ZM99.0151 28.5333C101.965 28.5333 103.915 26.9583 103.915 24.5583C103.915 18.8583 97.0151 21.7833 97.0151 19.2083C97.0151 18.4083 97.6901 17.9833 98.6651 17.9833C99.6151 17.9833 100.59 18.5583 100.74 19.6333H103.765C103.64 17.1583 101.59 15.5333 98.5651 15.5333C95.9901 15.5333 94.0651 17.1083 94.0651 19.3333C94.0651 24.6333 100.84 22.1083 100.84 24.6833C100.84 25.3833 100.09 25.9083 99.0151 25.9083C97.7151 25.9083 96.8401 25.2083 96.7151 24.0833H93.7151C93.8401 26.8083 95.9401 28.5333 99.0151 28.5333ZM117.64 15.7333H114.14V22.6333C114.14 24.2333 113.065 25.4333 111.54 25.4333C110.115 25.4333 109.115 24.3333 109.115 22.8083V15.7333H105.64V23.5833C105.64 26.4583 107.49 28.5333 110.315 28.5333C112.04 28.5333 113.44 27.7833 114.14 26.5833V28.3333H117.64V15.7333ZM120.141 28.3333H123.616V10.2583H120.141V28.3333ZM134.537 24.0583C134.262 25.1333 133.337 25.6833 131.937 25.6833C130.187 25.6833 129.062 24.5833 128.812 22.8083H137.862C137.887 22.5333 137.912 22.1583 137.912 21.6833C137.912 18.8083 136.137 15.5333 131.687 15.5333C127.412 15.5333 125.462 18.8083 125.462 22.0083C125.462 25.1833 127.662 28.5333 131.937 28.5333C135.037 28.5333 137.437 26.7833 137.937 24.0583H134.537ZM131.687 18.0833C133.362 18.0833 134.337 19.2083 134.437 20.6083H128.862C129.162 18.8583 130.112 18.0833 131.687 18.0833Z" fill="#0E0E0F"/>
</svg>
