<svg width="142" height="40" viewBox="0 0 142 40" fill="none" xmlns="http://www.w3.org/2000/svg">
<path d="M20.6795 29.3062C17.9161 28.2797 15.0738 28.1218 12.4683 28.8324C10.6523 29.3062 8.91534 30.2536 7.33625 31.4379L6.23089 32.3854L5.91508 32.7012L6.62567 33.3328C6.70462 33.3328 6.70462 33.4118 6.78357 33.4907C6.94148 33.6486 7.09939 33.7276 7.33625 33.8855L7.80998 34.2013L8.2837 33.8065C8.36266 33.7276 8.52057 33.5697 8.67848 33.4907C10.0997 32.3064 11.6787 31.5169 13.3368 31.1221C15.4685 30.5694 17.7582 30.6484 20.0479 31.5169C21.9428 32.2275 25.8115 33.096 30.4698 31.1221L30.6277 31.0431L30.8646 30.8063C30.8646 30.7273 30.9436 30.7273 31.0225 30.6484C31.4173 30.1746 31.8121 29.7009 32.1279 29.1482L33.707 26.7007L31.1804 28.1218C27.4696 30.1746 24.0745 30.5694 20.6795 29.3062ZM9.86279 20.7799C11.9946 20.2272 14.2842 20.3062 16.5739 21.1747C19.1004 22.1221 25.5747 23.4643 32.8385 16.9111L34.0228 15.7268L34.1017 15.6479L34.4175 15.3321L34.2596 14.9373C34.1807 14.6215 34.0228 14.2267 33.8649 13.8319L33.4701 12.7266L32.6805 13.5161C32.6016 13.674 32.4437 13.753 32.2858 13.9109C28.8118 17.4638 23.4429 21.0957 17.2845 18.885C14.5211 17.8586 11.6787 17.7007 9.07325 18.4113C6.54671 19.1219 4.33599 20.4641 2.28319 22.359V22.28L1.09887 23.5433C1.09887 23.6222 1.01992 23.6222 0.940964 23.7012L0.704102 23.9381L0.783056 24.2539C0.86201 24.6486 1.01992 25.0434 1.09887 25.4382L1.5726 26.7015L2.36214 25.6751C2.44109 25.5171 2.599 25.4382 2.67796 25.2803C4.33599 23.7801 6.62567 21.6484 9.86279 20.7799Z" fill="#0E0E0F"/>
<path d="M2.20447 19.3582C4.02042 17.4633 6.07323 16.279 8.28394 15.6473C10.4157 15.0947 12.7054 15.1736 14.9951 16.0421C22.1009 18.6476 28.2594 14.3841 30.9438 12.0944L31.9702 11.068L32.365 10.7522L32.0492 10.2785C31.8123 10.0416 31.6544 9.72577 31.4175 9.40995L30.9438 8.77832L30.3911 9.331L30.0753 9.64682C26.7592 12.805 21.6272 16.0421 15.7846 13.8314C13.0212 12.805 10.1788 12.6471 7.57336 13.3577C5.91532 13.8314 4.33623 14.6209 2.75715 15.6473L1.09911 16.9896L0.704341 17.3843L0.546433 17.5422V17.7791C0.467479 18.3318 0.467479 18.8845 0.388525 19.3582L0.30957 21.332L1.65179 19.9109C1.8097 19.753 1.96761 19.5161 2.20447 19.3582ZM22.9694 34.6753C22.7326 34.5963 22.5747 34.5174 22.3378 34.4384C19.5744 33.412 16.732 33.2541 14.1266 33.9647C13.5739 34.1226 13.0212 34.2805 12.4685 34.5174L10.5736 35.3859L10.0999 35.6227L11.679 36.1754L13.1002 36.6492L13.337 36.7281L13.5739 36.6492C13.8107 36.5702 14.0476 36.4123 14.2845 36.4123C14.4424 36.4123 14.6003 36.3333 14.7582 36.2544C16.6531 35.7807 18.7059 35.7807 20.9166 36.4912C21.1535 36.5702 21.3114 36.6492 21.5482 36.7281L21.943 36.886L22.1799 36.8071C22.7326 36.6491 23.3642 36.4912 23.8379 36.2544L26.0486 35.4648L23.759 34.9122C23.5221 34.8332 23.2063 34.7543 22.9694 34.6753ZM35.0494 18.3318L33.8651 19.5161L33.3914 19.9898C30.1543 23.069 24.9433 26.3851 19.1007 24.1744C16.3373 23.148 13.4949 22.9901 10.8894 23.7007C8.44185 24.4113 6.23114 25.6745 4.25728 27.5694L3.23088 28.6748L2.91506 29.0695L3.23088 29.5433C3.46774 29.8591 3.62565 30.096 3.78356 30.4118L4.25728 31.1224L4.80996 30.4118L5.12578 30.096C7.02068 28.0431 9.07349 26.7799 11.4421 26.1482C13.5739 25.5956 15.8635 25.6745 18.1532 26.543C20.1271 27.2536 22.1799 27.4905 24.2327 27.2536C27.8646 26.8588 31.4965 24.806 34.1809 22.5164C34.3388 22.3584 34.4967 22.2795 34.6546 22.1216L34.8915 21.8847V21.6479C34.8915 21.1741 34.9705 20.6214 34.9705 20.1477L35.0494 18.3318Z" fill="#0E0E0F"/>
<path d="M5.0464 11.0686C5.52012 10.8317 6.0728 10.6738 6.54653 10.5159C8.67829 9.96321 10.968 10.0422 13.2576 10.9107C14.7578 11.4633 16.2579 11.7002 17.9159 11.7002C21.232 11.7002 24.5481 10.5159 27.6273 8.22622L28.8116 7.27877L29.2064 6.96295L28.4958 6.41027C28.2589 6.17341 27.9431 5.93655 27.6273 5.77864L27.1536 5.46282L26.7588 5.77864C26.6009 5.8576 26.5219 6.0155 26.364 6.09446C22.1795 9.25263 17.9949 10.1211 14.0472 8.62099C11.2048 7.59459 8.36247 7.35772 5.52012 8.22622C5.28326 8.30518 5.0464 8.38413 4.73058 8.46308L4.57267 8.54204L4.33581 8.7789C4.33581 8.85785 4.25686 8.85785 4.1779 8.93681C3.86208 9.41053 3.46731 9.8053 3.1515 10.279L1.65137 12.5687L4.09895 11.3054C4.49372 11.3054 4.80953 11.1475 5.0464 11.0686ZM11.5206 5.6989L11.7575 5.77785C12.7839 6.17262 14.363 6.56739 16.3368 6.56739C18.3897 6.56739 20.3635 6.09367 22.3374 5.30413L24.7849 4.11981L23.1269 3.56713C22.6532 3.40923 22.1795 3.25132 21.6268 3.17236H21.3899L21.1531 3.25132C20.9162 3.33027 20.6793 3.48818 20.4425 3.56713C18.0738 4.43563 15.7052 4.59354 13.4155 3.96191L12.705 3.72504L12.4681 3.64609L12.2312 3.72504C11.7575 3.88295 11.2838 4.04086 10.8101 4.27772L8.99411 5.06726L10.889 5.61994C11.0469 5.54099 11.2838 5.61994 11.5206 5.6989Z" fill="#0E0E0F"/>
<path d="M48.6938 27.8242H45.0508L50.6013 11.7452H54.9818L60.5244 27.8234H56.8814L52.8547 15.4197H52.7284L48.6938 27.8242ZM48.4656 21.5039H57.0709V24.1568H48.4656V21.5039ZM65.741 11.7452V27.8242H62.3973V11.7452H65.741ZM74.8343 15.7647V18.2771H67.5728V15.7647H74.8343ZM69.2206 12.8758H72.5651V24.1181C72.5651 24.4268 72.6125 24.6676 72.7072 24.8405C72.8012 25.0079 72.9315 25.1248 73.0997 25.1934C73.2718 25.2613 73.4707 25.2961 73.6958 25.2961C73.8537 25.2961 74.01 25.2827 74.1671 25.2566L74.528 25.1855L75.0538 27.6742C74.8864 27.7263 74.6511 27.7871 74.3479 27.855C73.9842 27.9358 73.6135 27.9804 73.241 27.9884C72.4349 28.02 71.7282 27.9126 71.121 27.6663C70.5194 27.4207 70.0504 27.0386 69.7156 26.5199C69.3809 26.0019 69.2158 25.3482 69.2214 24.5579L69.2206 12.8758ZM81.4192 26.9518V15.835H84.23V26.9518H81.4192ZM77.2661 22.7988V19.988H88.383V22.7988H77.2661ZM100.457 16.3695C100.395 15.7363 100.124 15.2444 99.6484 14.8931C99.1723 14.5425 98.5256 14.3672 97.7092 14.3672C97.1542 14.3672 96.686 14.4462 96.3038 14.6033C95.9217 14.7549 95.6288 14.9665 95.4251 15.2389C95.2275 15.5069 95.1227 15.8321 95.1266 16.165C95.1156 16.4532 95.1764 16.7043 95.3066 16.919C95.4432 17.1338 95.6288 17.3193 95.8641 17.4765C96.1212 17.6386 96.3948 17.7728 96.6804 17.8768C96.99 17.9873 97.3192 18.0812 97.6698 18.1594L99.1146 18.5052C99.8158 18.6616 100.459 18.8708 101.046 19.1329C101.632 19.3943 102.139 19.7172 102.569 20.0985C102.992 20.4735 103.332 20.9336 103.566 21.4486C103.807 21.9666 103.929 22.5611 103.935 23.2306C103.929 24.2152 103.678 25.0679 103.181 25.7903C102.689 26.5072 101.978 27.0647 101.046 27.4626C100.12 27.855 99.0017 28.0508 97.6934 28.0508C96.3954 28.0508 95.2648 27.8518 94.3023 27.4547C93.3446 27.0568 92.5961 26.4678 92.0568 25.6877C91.5231 24.9029 91.2428 23.9325 91.2167 22.7759H94.506C94.5431 23.3143 94.6971 23.7644 94.9695 24.126C95.2466 24.4813 95.6161 24.7513 96.0764 24.9345C96.5423 25.1121 97.0681 25.2013 97.654 25.2013C98.2303 25.2013 98.7301 25.1176 99.1541 24.9503C99.5828 24.7829 99.9152 24.55 100.151 24.2515C100.384 23.96 100.509 23.5963 100.504 23.2227C100.504 22.8619 100.397 22.5587 100.182 22.3124C99.9729 22.0661 99.6642 21.8568 99.256 21.6847C98.7753 21.4871 98.279 21.3294 97.7724 21.2134L96.0212 20.7736C94.6655 20.4436 93.5957 19.9288 92.8101 19.2269C92.0252 18.5258 91.6352 17.5807 91.6407 16.3924C91.6352 15.4197 91.8942 14.5686 92.4176 13.8422C92.9466 13.1142 93.6715 12.5466 94.5929 12.1384C95.5135 11.7294 96.5604 11.5257 97.7329 11.5257C98.9259 11.5257 99.9674 11.7294 100.857 12.1384C101.753 12.5466 102.448 13.1142 102.946 13.8414C103.443 14.5694 103.7 15.4118 103.715 16.3695H100.457ZM109.503 20.8525V27.8242H106.158V11.7444H109.409V17.8918H109.55C109.823 17.1796 110.262 16.623 110.869 16.2195C111.476 15.8113 112.238 15.6068 113.154 15.6068C113.991 15.6068 114.721 15.79 115.344 16.1571C115.972 16.518 116.459 17.0383 116.804 17.7188C117.154 18.3939 117.327 19.2032 117.323 20.1451V27.8226H113.978V20.742C113.983 19.999 113.795 19.4211 113.413 19.0074C113.036 18.5937 112.507 18.3868 111.826 18.3868C111.372 18.3868 110.968 18.4839 110.618 18.6774C110.269 18.8747 109.985 19.1693 109.801 19.5253C109.608 19.8917 109.508 20.3346 109.503 20.8525ZM119.954 27.8242V15.7639H123.299V27.8242H119.954ZM121.634 14.2109C121.137 14.2109 120.71 14.0451 120.354 13.7159C120.004 13.3811 119.829 12.9808 119.829 12.515C119.829 12.0547 120.004 11.6591 120.354 11.3291C120.698 10.9991 121.158 10.8186 121.634 10.8269C122.132 10.8269 122.556 10.9943 122.906 11.3291C123.262 11.6591 123.44 12.0539 123.44 12.515C123.44 12.9808 123.262 13.3811 122.906 13.7159C122.564 14.0425 122.107 14.2205 121.634 14.2109ZM133.658 15.7647V18.2771H125.02V15.7647H133.658ZM126.724 27.8234V14.8939C126.724 14.0198 126.893 13.295 127.234 12.7187C127.565 12.1558 128.057 11.7048 128.647 11.4238C129.243 11.1356 129.921 10.992 130.68 10.992C131.193 10.992 131.662 11.0314 132.086 11.1096C132.514 11.1885 132.834 11.2588 133.043 11.3212L132.446 13.8335C132.287 13.7847 132.124 13.7454 131.96 13.7159C131.769 13.6789 131.574 13.6603 131.379 13.6606C130.887 13.6606 130.544 13.7759 130.35 14.0064C130.157 14.2314 130.06 14.548 130.06 14.9562V27.8242L126.724 27.8234ZM140.919 15.7647V18.2771H133.658V15.7647H140.919ZM135.306 12.8758H138.651V24.1181C138.651 24.4268 138.697 24.6676 138.792 24.8405C138.878 25.0003 139.017 25.1251 139.184 25.1934C139.357 25.2613 139.556 25.2961 139.781 25.2961C139.938 25.2961 140.095 25.2827 140.252 25.2566C140.409 25.225 140.529 25.2013 140.614 25.1855L141.139 27.6742C140.972 27.7263 140.736 27.7871 140.433 27.855C140.069 27.9358 139.698 27.9804 139.326 27.9884C138.52 28.02 137.813 27.9126 137.206 27.6663C136.604 27.4207 136.136 27.0386 135.8 26.5199C135.466 26.0019 135.301 25.3482 135.306 24.5579V12.8758Z" fill="#0E0E0F"/>
</svg>
