<svg width="122" height="40" viewBox="0 0 122 40" fill="none" xmlns="http://www.w3.org/2000/svg">
<path opacity="0.4" d="M11.2238 18.5985C11.9096 16.0421 14.5377 13.414 17.0941 12.729L33.0336 8.45692C35.59 7.77198 37.1074 9.28934 36.4224 11.8458L32.1503 27.7861C31.4654 30.3417 28.8373 32.9698 26.2808 33.6555L10.3406 37.9268C7.78495 38.6118 6.26759 37.0944 6.95253 34.538L11.2238 18.5985Z" fill="#0E0E0F"/>
<path d="M4.83417 12.2092C5.51911 9.65195 8.14721 7.02384 10.7037 6.3389L26.6439 2.06761C29.1995 1.38184 30.7169 2.89921 30.032 5.45565L25.7607 21.3959C25.0749 23.9515 22.4476 26.5796 19.8903 27.2654L3.95174 31.5367C1.3953 32.2216 -0.122067 30.7051 0.562873 28.1478L4.83417 12.2092Z" fill="#0E0E0F"/>
<path d="M51.4273 25.1773H56.6537V28.257H47.4375V11.8784H51.4273V25.1773ZM57.297 21.7251C57.297 20.3868 57.5461 19.2128 58.0436 18.2012C58.5569 17.1905 59.2494 16.413 60.1201 15.8681C60.9909 15.3239 61.9634 15.0515 63.0366 15.0515C63.9541 15.0515 64.7557 15.2381 65.4398 15.6114C66.1398 15.9847 66.6765 16.4747 67.0498 17.0813V15.2381H71.0395V28.2578H67.0498V26.4146C66.6606 27.0213 66.1165 27.5112 65.4165 27.8845C64.7316 28.2578 63.9308 28.4445 63.0133 28.4445C61.9907 28.4544 60.9867 28.171 60.1201 27.6279C59.2485 27.0679 58.5569 26.283 58.0436 25.2714C57.5461 24.2448 57.297 23.0633 57.297 21.7251ZM67.0498 21.7476C67.0498 20.7518 66.7698 19.9669 66.2098 19.3911C65.9557 19.1131 65.6454 18.8923 65.2995 18.7435C64.9535 18.5946 64.5798 18.5211 64.2033 18.5278C63.41 18.5278 62.7333 18.8153 62.1734 19.3911C61.6284 19.951 61.3567 20.7293 61.3567 21.7242C61.3567 22.72 61.6284 23.5132 62.1734 24.104C62.7333 24.679 63.41 24.9673 64.2033 24.9673C64.9965 24.9673 65.6657 24.6798 66.2098 24.104C66.7698 23.5291 67.0498 22.7433 67.0498 21.7476ZM86.7587 15.2381L78.5925 34.4398H74.2994L77.2859 27.8137L71.9895 15.2381H76.4459L79.4558 23.3807L82.4423 15.2381H86.7587ZM100.007 21.5376C100.007 21.9109 99.9838 22.3 99.9371 22.7041H90.9076C90.9701 23.5124 91.2268 24.1348 91.6776 24.5706C92.1442 24.9906 92.7117 25.2006 93.3808 25.2006C94.3766 25.2006 95.0682 24.7806 95.4574 23.9407H99.7038C99.4888 24.7914 99.0817 25.5815 98.5139 26.2505C97.9539 26.9346 97.2464 27.472 96.3907 27.8603C95.5349 28.2495 94.5783 28.4436 93.5208 28.4436C92.2451 28.4436 91.1101 28.1712 90.1143 27.627C89.1274 27.0912 88.3169 26.2808 87.7811 25.2939C87.2212 24.2832 86.9412 23.1008 86.9412 21.7476C86.9412 20.3943 87.2137 19.2119 87.7578 18.2012C88.2935 17.2142 89.104 16.4038 90.091 15.8681C91.0868 15.3239 92.2301 15.0515 93.5208 15.0515C94.7807 15.0515 95.9007 15.3156 96.8806 15.8447C97.8471 16.3601 98.6419 17.1467 99.1672 18.1079C99.7271 19.0878 100.007 20.231 100.007 21.5376ZM95.924 20.4877C95.924 19.8036 95.6907 19.2586 95.2241 18.8545C94.7574 18.4503 94.1741 18.2479 93.4742 18.2479C92.805 18.2479 92.2376 18.4428 91.7709 18.8311C91.3201 19.2203 91.0401 19.7727 90.931 20.4877H95.924ZM105.635 17.4088C106.076 16.7172 106.676 16.141 107.385 15.7281C108.085 15.3081 108.862 15.0981 109.718 15.0981V19.3211H108.622C107.626 19.3211 106.879 19.5394 106.382 19.9744C105.884 20.3943 105.635 21.1409 105.635 22.2142V28.257H101.645V15.2381H105.635V17.4088ZM116.455 28.4436C115.32 28.4436 114.309 28.2495 113.422 27.8603C112.536 27.472 111.836 26.9429 111.322 26.2738C110.817 25.6124 110.517 24.8175 110.459 23.9874H114.402C114.449 24.4382 114.659 24.804 115.032 25.0839C115.405 25.3639 115.864 25.5039 116.409 25.5039C116.906 25.5039 117.287 25.4106 117.552 25.2239C117.832 25.0223 117.972 24.7656 117.972 24.454C117.972 24.0807 117.777 23.809 117.389 23.6374C117 23.4507 116.37 23.2491 115.499 23.0308C114.565 22.8133 113.787 22.5875 113.166 22.3542C112.545 22.1069 111.993 21.7149 111.556 21.2109C111.104 20.6826 110.879 19.9744 110.879 19.0878C110.879 18.3412 111.081 17.6646 111.486 17.058C111.906 16.4355 112.512 15.9456 113.306 15.5881C114.114 15.2298 115.07 15.0515 116.175 15.0515C117.809 15.0515 119.092 15.4564 120.025 16.2647C120.973 17.073 121.518 18.147 121.658 19.4844H117.972C117.909 19.0336 117.707 18.6762 117.365 18.4112C117.039 18.147 116.603 18.0145 116.059 18.0145C115.592 18.0145 115.234 18.1079 114.985 18.2945C114.866 18.3726 114.769 18.4803 114.704 18.607C114.638 18.7338 114.607 18.8753 114.612 19.0178C114.612 19.3911 114.806 19.6711 115.195 19.8577C115.6 20.0444 116.222 20.231 117.062 20.4177C118.026 20.6668 118.812 20.916 119.419 21.1643C120.025 21.3976 120.554 21.7867 121.005 22.3308C121.472 22.86 121.713 23.5757 121.728 24.4773C121.728 25.2397 121.51 25.9239 121.075 26.5305C120.655 27.1221 120.04 27.5887 119.232 27.9303C118.439 28.272 117.513 28.4436 116.455 28.4436Z" fill="#0E0E0F"/>
</svg>
