<svg width="142" height="40" viewBox="0 0 142 40" fill="none" xmlns="http://www.w3.org/2000/svg">
<path fill-rule="evenodd" clip-rule="evenodd" d="M16.5397 31.1158C22.6787 31.1158 27.6554 26.1392 27.6554 20.0002C27.6554 13.8611 22.6787 8.88447 16.5397 8.88447C10.4007 8.88447 5.42402 13.8611 5.42402 20.0002C5.42402 26.1392 10.4007 31.1158 16.5397 31.1158ZM16.5397 35.8797C25.31 35.8797 32.4193 28.7704 32.4193 20.0002C32.4193 11.2299 25.31 4.12061 16.5397 4.12061C7.76943 4.12061 0.660156 11.2299 0.660156 20.0002C0.660156 28.7704 7.76943 35.8797 16.5397 35.8797Z" fill="#0E0E0F"/>
<path d="M53.2095 17.1519C53.2129 17.9686 53.0062 18.7724 52.6092 19.4862C52.2241 20.2127 51.6088 20.7978 50.764 21.2425C49.9343 21.6871 48.8822 21.9094 47.6071 21.9094H45.006V27.8674H41.8936V12.3499H47.6071C48.8076 12.3499 49.8303 12.5571 50.6751 12.9724C51.5199 13.3876 52.1495 13.9585 52.5648 14.6842C52.9943 15.4107 53.2095 16.2325 53.2095 17.1519ZM47.4737 19.3973C48.3336 19.3973 48.9704 19.2051 49.3856 18.8192C49.8009 18.4191 50.0081 17.8633 50.0081 17.1519C50.0081 15.6402 49.1633 14.8843 47.4737 14.8843H45.006V19.3973H47.4737ZM59.9989 28.0675C58.8135 28.0675 57.7463 27.8079 56.7975 27.2894C55.8559 26.7628 55.0787 25.9856 54.5521 25.044C54.0186 24.0809 53.7518 22.9694 53.7518 21.7093C53.7518 20.4501 54.0265 19.3385 54.5743 18.3746C55.1143 17.4337 55.9078 16.6634 56.8642 16.1515C57.8273 15.6179 58.9024 15.3512 60.0878 15.3512C61.274 15.3512 62.3483 15.6179 63.3114 16.1515C64.2645 16.6602 65.0516 17.4318 65.579 18.3746C66.1428 19.3377 66.4238 20.4501 66.4238 21.7093C66.4238 22.9694 66.1348 24.0809 65.5568 25.044C65.0091 25.9923 64.2086 26.7697 63.2447 27.2894C62.2816 27.8087 61.1994 28.0675 59.9989 28.0675ZM59.9989 25.3553C60.5626 25.3553 61.0882 25.2219 61.5773 24.9551C62.0815 24.674 62.4817 24.2588 62.7778 23.7101C63.0748 23.1623 63.2225 22.4954 63.2225 21.7093C63.2225 20.539 62.9112 19.6418 62.2887 19.0193C61.6813 18.3818 60.9326 18.0634 60.0433 18.0634C59.1541 18.0634 58.4053 18.3818 57.7979 19.0193C57.2056 19.6418 56.9087 20.5382 56.9087 21.7093C56.9087 22.8804 57.1977 23.7848 57.7757 24.4216C58.3688 25.044 59.1096 25.3553 59.9989 25.3553ZM70.9305 11.417V27.8682H67.8181V11.417H70.9305ZM84.8992 15.5512L77.2737 33.692H73.9612L76.629 27.5562L71.6935 15.5512H75.1839L78.363 24.1548L81.5866 15.5512H84.8992ZM100.983 15.3734C102.495 15.3734 103.71 15.8402 104.629 16.774C105.563 17.6926 106.03 18.982 106.03 20.6422V27.8674H102.917V21.0646C102.917 20.1015 102.673 19.3679 102.184 18.8637C101.694 18.3452 101.027 18.0856 100.183 18.0856C99.3378 18.0856 98.663 18.3452 98.1596 18.8637C97.6705 19.3679 97.4259 20.1015 97.4259 21.0646V27.8674H94.3135V21.0646C94.3135 20.1015 94.0689 19.3679 93.5798 18.8637C93.0907 18.3452 92.4238 18.0856 91.579 18.0856C90.7191 18.0856 90.0371 18.3452 89.5337 18.8637C89.0446 19.3679 88.8 20.1015 88.8 21.0646V27.8674H85.6876V15.5512H88.8V17.0407C89.2067 16.5168 89.7326 16.0976 90.334 15.818C90.9893 15.5177 91.7029 15.3658 92.4238 15.3734C93.3869 15.3734 94.2468 15.5814 95.0027 15.9959C95.748 16.3857 96.3596 16.9896 96.759 17.7299C97.1591 17.0185 97.7372 16.4484 98.493 16.0181C99.2531 15.591 100.111 15.3688 100.983 15.3734ZM107.294 21.6649C107.294 20.4199 107.538 19.3155 108.027 18.3524C108.531 17.3893 109.206 16.6485 110.05 16.1292C110.909 15.6108 111.865 15.3512 112.918 15.3512C113.837 15.3512 114.637 15.5361 115.319 15.9069C116.016 16.2777 116.571 16.7446 116.987 17.3075V15.5512H120.121V27.8682H116.987V26.0675C116.586 26.6455 116.031 27.1274 115.319 27.5125C114.622 27.8833 113.815 28.0683 112.896 28.0683C111.891 28.0775 110.904 27.7998 110.05 27.268C109.206 26.7344 108.531 25.9865 108.027 25.0226C107.538 24.0444 107.294 22.9249 107.294 21.6649ZM116.987 21.7093C116.987 20.9535 116.838 20.3087 116.542 19.7752C116.245 19.2273 115.845 18.8121 115.341 18.5302C114.851 18.2375 114.29 18.0838 113.719 18.0856C113.141 18.0856 112.607 18.2269 112.118 18.508C111.629 18.7899 111.229 19.2051 110.917 19.753C110.62 20.2865 110.473 20.9241 110.473 21.6649C110.473 22.4056 110.62 23.0583 110.917 23.6212C111.229 24.1691 111.629 24.5923 112.118 24.8884C112.601 25.1793 113.155 25.333 113.719 25.333C114.287 25.3356 114.846 25.1901 115.341 24.9106C115.847 24.612 116.262 24.1817 116.542 23.6657C116.838 23.1178 116.987 22.4652 116.987 21.7093ZM125.895 18.1078V24.0658C125.895 24.4811 125.991 24.7844 126.184 24.9773C126.391 25.1552 126.733 25.2441 127.207 25.2441H128.652V27.8674H126.696C124.072 27.8674 122.761 26.5931 122.761 24.0436V18.1078H121.293V15.5512H122.761V12.5055H125.895V15.5512H128.652V18.1078H125.895ZM136.938 15.3734C137.872 15.3734 138.701 15.5814 139.428 15.9959C140.154 16.396 140.717 16.9963 141.118 17.7966C141.532 18.5826 141.74 19.5306 141.74 20.6422V27.8674H138.628V21.0646C138.628 20.0864 138.383 19.3377 137.894 18.8192C137.405 18.2857 136.738 18.0189 135.893 18.0189C135.033 18.0189 134.351 18.2857 133.848 18.8192C133.359 19.3377 133.114 20.0864 133.114 21.0646V27.8674H130.002V11.417H133.114V17.086C133.514 16.5524 134.048 16.1372 134.715 15.841C135.382 15.5298 136.123 15.3734 136.938 15.3734Z" fill="#0E0E0F"/>
</svg>
