<svg width="110" height="110" viewBox="0 0 110 110" fill="none" xmlns="http://www.w3.org/2000/svg">
<g filter="url(#filter0_d_1511_6085)">
<rect x="15" y="7" width="80" height="80" rx="40" fill="white"/>
<path d="M46 59C45.875 59 45.75 58.974 45.625 58.9219C45.5 58.8698 45.3854 58.8021 45.2812 58.7188C45.1979 58.6146 45.1302 58.5 45.0781 58.375C45.026 58.25 45 58.125 45 58V36C45 35.9167 45.0104 35.8333 45.0312 35.75C45.0521 35.6667 45.0833 35.5833 45.125 35.5C45.1667 35.4375 45.2188 35.375 45.2812 35.3125C45.3438 35.25 45.4167 35.1875 45.5 35.125C45.5625 35.0833 45.6354 35.0521 45.7188 35.0312C45.8021 35.0104 45.8958 35 46 35C46.0833 35 46.1667 35.0104 46.25 35.0312C46.3333 35.0521 46.4062 35.0833 46.4688 35.125L66.4688 46.125C66.5521 46.1667 66.625 46.2188 66.6875 46.2812C66.75 46.3438 66.8125 46.4167 66.875 46.5C66.9167 46.5625 66.9479 46.6406 66.9688 46.7344C66.9896 46.8281 67 46.9167 67 47C67 47.0833 66.9896 47.1719 66.9688 47.2656C66.9479 47.3594 66.9167 47.4375 66.875 47.5C66.8125 47.5833 66.75 47.6562 66.6875 47.7188C66.625 47.7812 66.5521 47.8333 66.4688 47.875L46.4688 58.875C46.4062 58.9167 46.3333 58.9479 46.25 58.9688C46.1667 58.9896 46.0833 59 46 59Z" fill="#14715B"/>
</g>
<defs>
<filter id="filter0_d_1511_6085" x="0.6" y="0.6" width="108.8" height="108.8" filterUnits="userSpaceOnUse" color-interpolation-filters="sRGB">
<feFlood flood-opacity="0" result="BackgroundImageFix"/>
<feColorMatrix in="SourceAlpha" type="matrix" values="0 0 0 0 0 0 0 0 0 0 0 0 0 0 0 0 0 0 127 0" result="hardAlpha"/>
<feMorphology radius="1.6" operator="erode" in="SourceAlpha" result="effect1_dropShadow_1511_6085"/>
<feOffset dy="8"/>
<feGaussianBlur stdDeviation="8"/>
<feComposite in2="hardAlpha" operator="out"/>
<feColorMatrix type="matrix" values="0 0 0 0 0 0 0 0 0 0 0 0 0 0 0 0 0 0 0.15 0"/>
<feBlend mode="normal" in2="BackgroundImageFix" result="effect1_dropShadow_1511_6085"/>
<feBlend mode="normal" in="SourceGraphic" in2="effect1_dropShadow_1511_6085" result="shape"/>
</filter>
</defs>
</svg>
