<svg width="100" height="21" viewBox="0 0 100 21" fill="none" xmlns="http://www.w3.org/2000/svg">
<path d="M9.99997 1.51074L7.26957 7.04354L1.16797 7.92514L5.58397 12.2331L4.53997 18.3107L9.99997 15.4435L15.46 18.3115L14.416 12.2339L18.832 7.93154L12.7304 7.04354L9.99997 1.51074Z" fill="black"/>
<path d="M30 1.51074L27.2696 7.04354L21.168 7.92514L25.584 12.2331L24.54 18.3107L30 15.4435L35.46 18.3115L34.416 12.2339L38.832 7.93154L32.7304 7.04354L30 1.51074Z" fill="black"/>
<path d="M50 1.51074L47.2696 7.04354L41.168 7.92514L45.584 12.2331L44.54 18.3107L50 15.4435L55.46 18.3115L54.416 12.2339L58.832 7.93154L52.7304 7.04354L50 1.51074Z" fill="black"/>
<path d="M70 1.51074L67.2696 7.04354L61.168 7.92514L65.584 12.2331L64.54 18.3107L70 15.4435L75.46 18.3115L74.416 12.2339L78.832 7.93154L72.7304 7.04354L70 1.51074Z" fill="black"/>
<path d="M90 1.51074L87.2696 7.04354L81.168 7.92514L85.584 12.2331L84.54 18.3107L90 15.4435L95.46 18.3115L94.416 12.2339L98.832 7.93154L92.7304 7.04354L90 1.51074Z" fill="black"/>
</svg>
