<svg width="25" height="26" viewBox="0 0 25 26" fill="none" xmlns="http://www.w3.org/2000/svg">
<path d="M22.3643 7.82812C22.3018 7.60938 22.2158 7.40234 22.1064 7.20703C21.9971 7.01172 21.8564 6.82813 21.6846 6.65625C21.5283 6.5 21.3486 6.36328 21.1455 6.24609C20.9424 6.12891 20.7314 6.03906 20.5127 5.97656C20.1064 5.86719 19.4502 5.78125 18.5439 5.71875C17.6377 5.67188 16.7236 5.63281 15.8018 5.60156C14.8799 5.57031 14.0674 5.55469 13.3643 5.55469C12.6611 5.53906 12.3096 5.53125 12.3096 5.53125C12.3096 5.53125 11.958 5.53906 11.2549 5.55469C10.5518 5.55469 9.73926 5.57031 8.81738 5.60156C7.89551 5.63281 6.98145 5.67188 6.0752 5.71875C5.16895 5.78125 4.5127 5.86719 4.10645 5.97656C3.8877 6.03906 3.67676 6.12891 3.47363 6.24609C3.27051 6.36328 3.09082 6.5 2.93457 6.65625C2.7627 6.82813 2.62207 7.01172 2.5127 7.20703C2.40332 7.40234 2.31738 7.60938 2.25488 7.82812C2.09863 8.67188 1.98535 9.51562 1.91504 10.3594C1.84473 11.2031 1.80957 12.0469 1.80957 12.8906C1.80957 13.7344 1.84473 14.5781 1.91504 15.4219C1.98535 16.2656 2.09863 17.1094 2.25488 17.9531C2.31738 18.1719 2.40332 18.3789 2.5127 18.5742C2.62207 18.7695 2.7627 18.9531 2.93457 19.125C3.09082 19.2812 3.27051 19.418 3.47363 19.5352C3.67676 19.6523 3.8877 19.7422 4.10645 19.8047C4.5127 19.9141 5.16895 20 6.0752 20.0625C6.98145 20.1094 7.89551 20.1484 8.81738 20.1797C9.73926 20.2109 10.5518 20.2266 11.2549 20.2266C11.958 20.2422 12.3096 20.25 12.3096 20.25C12.3096 20.25 12.6611 20.2422 13.3643 20.2266C14.0674 20.2266 14.8799 20.2109 15.8018 20.1797C16.7236 20.1484 17.6377 20.1094 18.5439 20.0625C19.4502 20 20.1064 19.9141 20.5127 19.8047C20.7314 19.7422 20.9424 19.6523 21.1455 19.5352C21.3486 19.418 21.5283 19.2812 21.6846 19.125C21.8564 18.9531 21.9971 18.7695 22.1064 18.5742C22.2158 18.3789 22.3018 18.1719 22.3643 17.9531C22.5205 17.1094 22.6338 16.2656 22.7041 15.4219C22.7744 14.5781 22.8096 13.7344 22.8096 12.8906C22.8096 12.0469 22.7744 11.2031 22.7041 10.3594C22.6338 9.51562 22.5205 8.67188 22.3643 7.82812ZM10.2002 16.0312V9.75L15.6611 12.8906L10.2002 16.0312Z" fill="#8F8F94"/>
</svg>
