<svg width="143" height="40" viewBox="0 0 143 40" fill="#636669" xmlns="http://www.w3.org/2000/svg">
<path d="M11.8236 3.77102C13.9551 2.88808 16.2396 2.43362 18.5467 2.43359V11.2167C17.3932 11.2165 16.251 11.4435 15.1853 11.8848C14.1196 12.3262 13.1512 12.9731 12.3356 13.7887C11.52 14.6044 10.873 15.5727 10.4317 16.6384C9.99039 17.7041 9.76336 18.8463 9.76356 19.9998H0.980469C0.980672 16.5257 2.01091 13.1297 3.94093 10.241C5.87096 7.35239 8.61411 5.10084 11.8236 3.77102Z" />
<path opacity="0.6" d="M0.980469 19.9999C0.980892 24.6586 2.83175 29.1264 6.12595 32.4206C9.42016 35.7148 13.8879 37.5657 18.5467 37.5661C23.2053 37.5654 27.673 35.7145 30.9671 32.4204C34.2613 29.1262 36.1122 24.6585 36.1129 19.9999H27.3298C27.33 21.1534 27.1029 22.2956 26.6616 23.3613C26.2203 24.427 25.5733 25.3953 24.7577 26.2109C23.9421 27.0266 22.9738 27.6735 21.9081 28.1148C20.8423 28.5562 19.7001 28.7832 18.5467 28.783C17.3932 28.7832 16.251 28.5562 15.1853 28.1148C14.1196 27.6735 13.1512 27.0266 12.3356 26.2109C11.52 25.3953 10.873 24.427 10.4317 23.3613C9.99039 22.2956 9.76336 21.1534 9.76356 19.9999H0.980469ZM18.5467 14.4106C17.0643 14.4106 15.6427 14.9995 14.5945 16.0477C13.5463 17.0959 12.9574 18.5175 12.9574 19.9999H24.1359C24.1359 18.5175 23.547 17.0959 22.4989 16.0477C21.4507 14.9995 20.029 14.4106 18.5467 14.4106Z"  />
<path d="M18.5463 25.5892C17.0639 25.5892 15.6423 25.0004 14.5941 23.9522C13.5459 22.904 12.957 21.4824 12.957 20H24.1355C24.1355 21.4824 23.5467 22.904 22.4985 23.9522C21.4503 25.0004 20.0286 25.5892 18.5463 25.5892Z" />
<path d="M54.3319 16.3287C54.268 15.6884 53.9957 15.1909 53.5142 14.8356C53.0319 14.4819 52.3788 14.3038 51.5532 14.3038C50.9918 14.3038 50.5183 14.3837 50.1319 14.5426C49.7454 14.6959 49.4492 14.9099 49.2424 15.1853C49.0424 15.4566 48.9364 15.7857 48.9406 16.1227C48.9302 16.4134 48.9909 16.6673 49.1234 16.8845C49.2607 17.1017 49.4492 17.2893 49.6871 17.4482C49.947 17.6124 50.2238 17.7481 50.5128 17.853C50.825 17.9648 51.1587 18.0598 51.5132 18.1389L52.9744 18.4886C53.6448 18.6344 54.2988 18.8471 54.9267 19.1234C55.52 19.3877 56.0334 19.7142 56.4678 20.0999C56.8961 20.4789 57.2395 20.9442 57.4754 21.4653C57.719 21.9891 57.8435 22.5903 57.8491 23.2674C57.8435 24.2631 57.5896 25.1254 57.0866 25.856C56.5891 26.581 55.8689 27.1447 54.9275 27.5472C53.9901 27.944 52.8603 28.142 51.5372 28.142C50.2245 28.142 49.0811 27.9416 48.1069 27.5392C47.1384 27.1367 46.3822 26.5411 45.8369 25.753C45.2963 24.9585 45.0137 23.9772 44.9873 22.8067H48.3138C48.3505 23.352 48.507 23.8072 48.7825 24.1721C49.0619 24.533 49.4356 24.8052 49.9019 24.9905C50.373 25.1701 50.9048 25.2604 51.4973 25.2604C52.0802 25.2604 52.5848 25.1757 53.0144 25.0064C53.4479 24.8372 53.7841 24.6016 54.022 24.2998C54.26 23.998 54.379 23.6515 54.379 23.2594C54.379 22.8945 54.2704 22.5879 54.054 22.3388C53.8424 22.0905 53.5302 21.8781 53.1174 21.704C52.631 21.504 52.1289 21.3445 51.6162 21.2273L49.8468 20.7826C48.4758 20.4488 47.3931 19.9282 46.5994 19.2184C45.8057 18.5094 45.4113 17.5544 45.4169 16.3519C45.4113 15.3682 45.6732 14.5075 46.2026 13.7729C46.7376 13.0367 47.4698 12.4626 48.4016 12.0498C49.3334 11.637 50.3922 11.4302 51.5771 11.4302C52.7844 11.4302 53.8376 11.637 54.7375 12.0498C55.6421 12.4626 56.3464 13.0367 56.8494 13.7721C57.3525 14.5083 57.6112 15.3602 57.6272 16.3287H54.3319ZM65.655 28.15C64.4014 28.15 63.3211 27.8961 62.4156 27.3883C61.5238 26.8832 60.8004 26.1267 60.3356 25.2132C59.8485 24.2711 59.605 23.1564 59.605 21.8701C59.605 20.6165 59.8485 19.5146 60.3356 18.5676C60.8227 17.6207 61.5085 16.8821 62.3925 16.3527C63.2812 15.8233 64.3248 15.559 65.5201 15.559C66.3249 15.559 67.0739 15.6884 67.767 15.9479C68.4524 16.1934 69.0757 16.5862 69.5931 17.0985C70.1169 17.6119 70.5249 18.2578 70.8156 19.0363C71.107 19.8092 71.2523 20.7139 71.2523 21.7511V22.6805H60.9552V20.5846H68.0688C68.0688 20.0975 67.9626 19.6663 67.751 19.2902C67.545 18.9201 67.2397 18.6148 66.8695 18.4087C66.499 18.1916 66.0678 18.083 65.576 18.083C65.0626 18.083 64.6074 18.2027 64.2106 18.4407C63.8247 18.6677 63.5065 18.9938 63.2891 19.3853C63.0648 19.7852 62.9474 20.2362 62.9482 20.6947V22.6877C62.9482 23.2913 63.0592 23.8135 63.2812 24.2527C63.5087 24.6919 63.8289 25.0304 64.2417 25.2683C64.6545 25.5063 65.144 25.6261 65.7109 25.6261C66.0862 25.6261 66.4303 25.5726 66.7433 25.4664C67.0423 25.3686 67.316 25.2061 67.545 24.9905C67.767 24.7789 67.9363 24.5194 68.0528 24.2128L71.1813 24.4188C71.0331 25.1491 70.6964 25.8279 70.2047 26.3878C69.7177 26.9435 69.0877 27.3779 68.3147 27.6893C67.5474 27.9967 66.6603 28.15 65.655 28.15ZM78.9536 32.7396C77.8581 32.7396 76.9183 32.5879 76.135 32.2868C75.3573 31.9906 74.7377 31.5858 74.2769 31.0724C73.8301 30.5849 73.5206 29.9875 73.3803 29.3413L76.5087 28.9205C76.6037 29.164 76.7546 29.3916 76.9606 29.6032C77.1674 29.8148 77.4397 29.9841 77.7791 30.111C78.1224 30.2436 78.5408 30.3098 79.0327 30.3098C79.7689 30.3098 80.3741 30.1302 80.8508 29.7701C81.3331 29.4156 81.5734 28.8199 81.5734 27.9839V25.753H81.4305C81.269 26.1113 81.043 26.4369 80.7638 26.7136C80.4675 27.0154 80.0867 27.2613 79.6203 27.4513C79.1548 27.643 78.5983 27.7372 77.9531 27.7372C77.0373 27.7372 76.2045 27.5256 75.4523 27.1024C74.7065 26.6736 74.1109 26.0197 73.6661 25.1414C73.227 24.2575 73.0074 23.1404 73.0074 21.791C73.0074 20.4097 73.2318 19.2559 73.6821 18.3297C74.1316 17.4035 74.7297 16.7096 75.4763 16.2497C76.2179 15.7917 77.0735 15.5521 77.9451 15.5582C78.6278 15.5582 79.1995 15.6748 79.6603 15.908C80.121 16.1355 80.4907 16.4214 80.7717 16.7655C81.0576 17.1041 81.2772 17.4378 81.4305 17.766H81.5574V15.7171H84.9158V28.031C84.9158 29.069 84.6619 29.937 84.1541 30.6356C83.6455 31.3343 82.942 31.8573 82.0421 32.207C81.1478 32.5623 80.1178 32.7396 78.9536 32.7396ZM79.0255 25.1973C79.57 25.1973 80.0308 25.0615 80.4068 24.7917C80.7877 24.517 81.0792 24.1249 81.2796 23.6171C81.4864 23.1037 81.5894 22.4897 81.5894 21.7751C81.5894 21.0604 81.4888 20.4416 81.2876 19.917C81.0863 19.3877 80.7957 18.978 80.4148 18.6874C80.0332 18.396 79.57 18.2499 79.0255 18.2499C78.4689 18.2499 78.001 18.4016 77.6202 18.7026C77.2385 18.9988 76.9502 19.4116 76.7546 19.941C76.5582 20.4704 76.4608 21.082 76.4608 21.7751C76.4608 22.4793 76.5582 23.0877 76.7546 23.6012C76.9558 24.109 77.2441 24.5034 77.6202 24.7837C78.001 25.0591 78.4689 25.1973 79.0255 25.1973ZM87.6075 27.9129V15.7163H90.8309V17.8682H90.9739C91.2278 17.1536 91.6518 16.5906 92.2442 16.177C92.8367 15.7642 93.5465 15.5574 94.3722 15.5574C95.2082 15.5574 95.9204 15.7666 96.5073 16.185C97.0878 16.5874 97.5049 17.1846 97.6826 17.8682H97.8096C98.0587 17.1695 98.5083 16.6114 99.159 16.193C99.8154 15.7698 100.591 15.5574 101.486 15.5574C102.624 15.5574 103.547 15.9207 104.256 16.6457C104.971 17.3652 105.328 18.3864 105.328 19.7102V27.9113H101.954V20.377C101.954 19.6999 101.774 19.1912 101.414 18.8527C101.055 18.5141 100.604 18.3449 100.064 18.3449C99.4505 18.3449 98.9714 18.5405 98.6272 18.9317C98.2831 19.3182 98.1114 19.8292 98.1114 20.4648V27.9113H94.8321V20.3059C94.8321 19.707 94.6604 19.2312 94.3163 18.8766C93.9777 18.5221 93.5306 18.3449 92.9748 18.3449C92.5987 18.3449 92.2602 18.4399 91.9584 18.6307C91.6621 18.816 91.4266 19.0779 91.2517 19.4164C91.0769 19.7502 90.9898 20.1414 90.9898 20.5909V27.9113H87.6075V27.9129ZM113.557 28.15C112.303 28.15 111.223 27.8961 110.319 27.3883C109.426 26.8832 108.703 26.1268 108.238 25.2132C107.751 24.2711 107.508 23.1564 107.508 21.8701C107.508 20.6165 107.751 19.5146 108.238 18.5676C108.725 17.6207 109.411 16.8821 110.295 16.3527C111.183 15.8233 112.226 15.559 113.422 15.559C114.227 15.559 114.976 15.6884 115.669 15.9479C116.355 16.1933 116.978 16.586 117.495 17.0985C118.019 17.6119 118.427 18.2578 118.718 19.0363C119.009 19.8092 119.154 20.7139 119.154 21.7511V22.6805H108.857V20.5846H115.971C115.971 20.0975 115.866 19.6663 115.653 19.2902C115.447 18.9202 115.142 18.6149 114.772 18.4087C114.402 18.1916 113.97 18.083 113.478 18.083C112.965 18.083 112.51 18.2027 112.113 18.4407C111.727 18.6676 111.409 18.9938 111.191 19.3853C110.967 19.7852 110.849 20.2362 110.85 20.6947V22.6877C110.85 23.2913 110.961 23.8135 111.183 24.2527C111.411 24.6919 111.731 25.0304 112.145 25.2683C112.557 25.5063 113.047 25.6261 113.613 25.6261C113.989 25.6261 114.333 25.5726 114.645 25.4664C114.944 25.3685 115.218 25.206 115.447 24.9905C115.673 24.7729 115.847 24.507 115.955 24.2128L119.083 24.4188C118.935 25.149 118.598 25.8278 118.107 26.3878C117.62 26.9435 116.99 27.3779 116.217 27.6893C115.449 27.9967 114.563 28.15 113.557 28.15ZM124.744 20.8624V27.9129H121.362V15.7163H124.585V17.8682H124.728C124.986 17.1744 125.462 16.5835 126.086 16.185C126.721 15.7666 127.491 15.5582 128.396 15.5582C129.243 15.5582 129.982 15.7435 130.611 16.114C131.241 16.4844 131.73 17.0138 132.08 17.7013C132.429 18.384 132.604 19.1992 132.604 20.147V27.9113H129.222V20.7506C129.227 20.0049 129.036 19.4228 128.65 19.0044C128.264 18.5812 127.732 18.3688 127.055 18.3688C126.599 18.3688 126.197 18.467 125.847 18.6627C125.504 18.8591 125.234 19.1449 125.038 19.5202C124.848 19.8907 124.749 20.3386 124.744 20.8624ZM141.756 15.7171V18.2578H134.412V15.7171H141.756ZM136.08 12.7955H139.462V24.1649C139.462 24.4771 139.509 24.7206 139.605 24.8955C139.692 25.057 139.832 25.1832 140.002 25.2524C140.176 25.321 140.377 25.3562 140.605 25.3562C140.764 25.3562 140.922 25.3426 141.081 25.3163L141.446 25.2444L141.979 27.7611C141.743 27.8311 141.505 27.8921 141.264 27.944C140.896 28.0261 140.521 28.0713 140.145 28.0789C139.329 28.1109 138.615 28.0023 138.001 27.7532C137.392 27.5048 136.918 27.1184 136.58 26.5946C136.241 26.07 136.074 25.4089 136.08 24.6096V12.7955Z" />
</svg>
