<svg width="140" height="40" viewBox="0 0 140 40" fill="#636669" xmlns="http://www.w3.org/2000/svg">
<path fill-rule="evenodd" clip-rule="evenodd" d="M17.1894 2.87489C16.7689 2.78845 16.3351 2.78845 15.9145 2.87489C15.4279 2.97488 14.9929 3.21819 14.648 3.41235L14.553 3.46484L2.83721 9.97268L2.73722 10.0285C2.37141 10.2302 1.91228 10.4835 1.55814 10.8668C1.25289 11.1983 1.02193 11.5912 0.880693 12.0192C0.716539 12.5141 0.719039 13.0391 0.719872 13.4574V26.5364C0.719039 26.9539 0.716539 27.4788 0.880693 27.9746C1.02193 28.4026 1.25289 28.7955 1.55814 29.127C1.91145 29.5103 2.37141 29.7637 2.73805 29.9653L2.83804 30.0203L14.553 36.5281L14.6471 36.5815C14.9929 36.7748 15.4279 37.0189 15.9137 37.1189C16.3345 37.2055 16.7686 37.2055 17.1894 37.1189C17.6761 37.0189 18.111 36.7748 18.456 36.5815L18.551 36.529L30.2668 30.0203C30.3 30.0018 30.3333 29.9834 30.3668 29.9653C30.7326 29.7637 31.1917 29.5103 31.5458 29.127C31.8511 28.7955 32.0821 28.4026 32.2233 27.9746C32.3874 27.4788 32.3849 26.9539 32.3841 26.5364V13.4574C32.3858 13.0391 32.3874 12.5141 32.2233 12.0192C32.0821 11.5912 31.8511 11.1983 31.5458 10.8668C31.1925 10.4835 30.7326 10.2302 30.3659 10.0285L30.2668 9.97351L18.551 3.46484L18.4568 3.41235C18.111 3.21819 17.6761 2.97488 17.1903 2.87489H17.1894ZM16.0904 6.23296C16.3303 6.09964 16.4528 6.03214 16.5445 5.98798L16.552 5.98465L16.5603 5.98798C16.6512 6.03214 16.7736 6.09964 17.0136 6.23296L27.5403 12.0808L16.552 18.1854L5.56367 12.0808L16.0904 6.23296ZM3.88713 14.7715L14.9688 20.9285V33.1376L4.37543 27.2522C4.12211 27.1114 3.99212 27.0389 3.90213 26.9814L3.8938 26.9764V26.968C3.88685 26.7862 3.88462 26.6042 3.88713 26.4222V14.7715Z" fill="#636669"/>
<path d="M46.7936 25.2872H51.8334V28.257H42.9463V12.4632H46.7936V25.2872ZM55.3782 14.398C54.7032 14.398 54.1483 14.203 53.7133 13.8131C53.5101 13.6235 53.349 13.3934 53.2405 13.1376C53.132 12.8818 53.0784 12.606 53.0833 12.3282C53.0833 11.7282 53.2933 11.2333 53.7133 10.8433C54.1483 10.4383 54.7032 10.2358 55.3782 10.2358C56.0382 10.2358 56.5781 10.4383 56.9981 10.8441C57.4331 11.2333 57.6506 11.7282 57.6506 12.3282C57.6506 12.9131 57.4339 13.4081 56.9981 13.8131C56.5781 14.203 56.0382 14.398 55.3782 14.398ZM57.2906 15.7029V28.2578H53.4433V15.7029H57.2906ZM64.6236 15.5229C65.5085 15.5229 66.2818 15.7029 66.941 16.0629C67.6159 16.4229 68.1334 16.8962 68.4934 17.4803V15.7029H72.3407V28.2353C72.3407 29.3894 72.1082 30.4318 71.6432 31.3617C71.1933 32.3066 70.4958 33.0566 69.5517 33.6115C68.6209 34.1665 67.4584 34.4448 66.0635 34.4448C64.2036 34.4448 62.697 34.0015 61.5412 33.1166C60.3863 32.2467 59.7263 31.0617 59.5613 29.5619H63.3636C63.4836 30.0418 63.7686 30.4168 64.2186 30.6868C64.6686 30.9718 65.2236 31.1142 65.8835 31.1142C66.6785 31.1142 67.3085 30.8818 67.7734 30.4168C68.2534 29.9668 68.4934 29.2394 68.4934 28.2345V26.4579C68.1184 27.0429 67.6018 27.5228 66.941 27.8978C66.281 28.2578 65.5085 28.4378 64.6244 28.4378C63.5886 28.4378 62.6512 28.1753 61.8112 27.6503C60.9713 27.1104 60.3038 26.3529 59.8088 25.378C59.3288 24.3881 59.0888 23.2482 59.0888 21.9583C59.0888 20.6684 59.3288 19.536 59.8088 18.561C60.3038 17.5861 60.9713 16.8362 61.8112 16.3112C62.6512 15.7862 63.5886 15.5229 64.6236 15.5229ZM68.4934 21.9808C68.4934 21.02 68.2234 20.2626 67.6834 19.7076C67.4384 19.4396 67.1392 19.2267 66.8056 19.0832C66.472 18.9396 66.1116 18.8687 65.7485 18.8752C64.9836 18.8752 64.3319 19.1527 63.7911 19.7084C63.2662 20.2476 63.0037 20.9975 63.0037 21.9583C63.0037 22.9174 63.2662 23.6831 63.7911 24.2523C64.3311 24.8072 64.9836 25.0855 65.7494 25.0855C66.5135 25.0855 67.1585 24.8072 67.6834 24.2523C68.2234 23.6973 68.4934 22.9399 68.4934 21.9799V21.9808ZM82.6161 15.5679C84.056 15.5679 85.2109 16.0479 86.0809 17.0078C86.9509 17.9527 87.3858 19.2576 87.3858 20.9225V28.257H83.561V21.4408C83.561 20.6 83.3444 19.9476 82.9085 19.4826C82.4736 19.0177 81.8886 18.7852 81.1536 18.7852C80.4187 18.7852 79.8337 19.0185 79.3987 19.4826C78.9637 19.9476 78.7462 20.6 78.7462 21.4408V28.257H74.8998V11.6091H78.7471V17.392C79.1371 16.8362 79.6695 16.3937 80.3445 16.0637C81.0195 15.7338 81.7778 15.5688 82.6169 15.5688L82.6161 15.5679ZM96.832 24.9947V28.257H94.8746C93.4797 28.257 92.3923 27.9195 91.6123 27.2445C90.8323 26.5546 90.4423 25.4372 90.4423 23.8923V18.8977H88.9124V15.7029H90.4423V12.6432H94.2897V15.7029H96.8095V18.8977H94.2897V23.9373C94.2897 24.3123 94.3797 24.5822 94.5597 24.7472C94.7396 24.9122 95.0396 24.9947 95.4596 24.9947H96.832ZM102.597 17.4803C102.957 16.8953 103.474 16.4229 104.149 16.0637C104.824 15.7029 105.597 15.5229 106.467 15.5229C107.502 15.5229 108.439 15.7854 109.279 16.3104C110.119 16.8353 110.779 17.5853 111.259 18.5602C111.754 19.5351 112.001 20.6684 112.001 21.9574C112.001 23.2473 111.754 24.3873 111.259 25.3772C110.779 26.3521 110.119 27.1104 109.279 27.6495C108.439 28.1745 107.502 28.4369 106.467 28.4369C105.582 28.4369 104.809 28.2645 104.149 27.9203C103.489 27.5595 102.972 27.087 102.597 26.5021V28.257H98.7494V11.6091H102.597V17.4803ZM108.087 21.9574C108.087 20.9975 107.817 20.2476 107.277 19.7076C106.752 19.1527 106.099 18.8752 105.319 18.8752C104.554 18.8752 103.902 19.1527 103.362 19.7084C102.837 20.2626 102.574 21.02 102.574 21.9799C102.574 22.9399 102.837 23.6973 103.362 24.2523C103.902 24.8072 104.554 25.0855 105.319 25.0855C106.084 25.0855 106.737 24.8072 107.277 24.2523C107.817 23.6823 108.087 22.9174 108.087 21.9574ZM119.51 28.4369C118.28 28.4369 117.17 28.1745 116.18 27.6495C115.212 27.1314 114.409 26.3518 113.863 25.3997C113.308 24.4248 113.03 23.2848 113.03 21.9799C113.03 20.69 113.315 19.5576 113.885 18.5827C114.431 17.6164 115.243 16.8275 116.225 16.3104C117.215 15.7854 118.325 15.5229 119.555 15.5229C120.785 15.5229 121.895 15.7854 122.885 16.3104C123.867 16.8275 124.679 17.6164 125.225 18.5827C125.795 19.5576 126.08 20.6909 126.08 21.9799C126.08 23.2698 125.787 24.4098 125.202 25.3997C124.647 26.3607 123.827 27.1417 122.84 27.6495C121.85 28.1745 120.74 28.4369 119.51 28.4369ZM119.51 25.1072C120.245 25.1072 120.868 24.8372 121.378 24.2973C121.903 23.7573 122.165 22.9849 122.165 21.9808C122.165 20.975 121.91 20.2026 121.4 19.6626C121.17 19.402 120.885 19.1946 120.567 19.0547C120.248 18.9149 119.903 18.8459 119.555 18.8527C118.805 18.8527 118.183 19.1227 117.688 19.6626C117.193 20.1876 116.945 20.96 116.945 21.9799C116.945 22.9849 117.185 23.7573 117.665 24.2973C117.896 24.5579 118.18 24.7653 118.499 24.9051C118.817 25.045 119.162 25.1139 119.51 25.1072ZM135.32 28.2578L132.913 24.7697L130.888 28.257H126.726L130.865 21.845L126.613 15.7038H130.933L133.34 19.1668L135.365 15.7021H139.527L135.32 22.0241L139.64 28.257L135.32 28.2578Z" fill="#636669"/>
</svg>
